<svg width="28" height="24" viewBox="0 0 28 24" fill="none" xmlns="http://www.w3.org/2000/svg">
<path d="M5.55671 12.7887C5.55529 12.781 5.554 12.7732 5.55284 12.7655L3.92602 3.00454C3.76529 2.04016 2.93091 1.33333 1.95323 1.33333H1.54557C1.17738 1.33333 0.878906 1.03486 0.878906 0.666667C0.878906 0.298477 1.17738 0 1.54557 0H1.95323C3.54232 0 4.90427 1.12039 5.21925 2.66667H26.8789C27.3218 2.66667 27.6416 3.0906 27.5199 3.51648L24.8533 12.8498C24.7715 13.136 24.5099 13.3333 24.2122 13.3333H6.99921L7.16512 14.3288C7.32585 15.2932 8.16023 16 9.13791 16H24.2122C24.5804 16 24.8789 16.2985 24.8789 16.6667C24.8789 17.0349 24.5804 17.3333 24.2122 17.3333H9.13791C7.50845 17.3333 6.11781 16.1553 5.84993 14.548L5.55671 12.7887ZM5.44366 4L6.77699 12H23.7094L25.9951 4H5.44366ZM8.87891 24C7.40615 24 6.21224 22.8061 6.21224 21.3333C6.21224 19.8606 7.40615 18.6667 8.87891 18.6667C10.3517 18.6667 11.5456 19.8606 11.5456 21.3333C11.5456 22.8061 10.3517 24 8.87891 24ZM8.87891 22.6667C9.61529 22.6667 10.2122 22.0697 10.2122 21.3333C10.2122 20.597 9.61529 20 8.87891 20C8.14253 20 7.54557 20.597 7.54557 21.3333C7.54557 22.0697 8.14253 22.6667 8.87891 22.6667ZM20.8789 24C19.4061 24 18.2122 22.8061 18.2122 21.3333C18.2122 19.8606 19.4061 18.6667 20.8789 18.6667C22.3517 18.6667 23.5456 19.8606 23.5456 21.3333C23.5456 22.8061 22.3517 24 20.8789 24ZM20.8789 22.6667C21.6153 22.6667 22.2122 22.0697 22.2122 21.3333C22.2122 20.597 21.6153 20 20.8789 20C20.1425 20 19.5456 20.597 19.5456 21.3333C19.5456 22.0697 20.1425 22.6667 20.8789 22.6667Z" fill="#3D1551"/>
</svg>
