<svg width="34" height="36" viewBox="0 0 34 36" fill="none" xmlns="http://www.w3.org/2000/svg">
<path d="M22.1522 10.6407C22.1106 10.5158 22.031 10.4071 21.9245 10.3298C21.8181 10.2525 21.6901 10.2104 21.5585 10.2094H18.4522L17.496 7.25943C17.4549 7.13439 17.3753 7.02552 17.2687 6.94833C17.1621 6.87114 17.0338 6.82959 16.9022 6.82959C16.7706 6.82959 16.6423 6.87114 16.5357 6.94833C16.4291 7.02552 16.3496 7.13439 16.3085 7.25943L15.3522 10.2094H12.246C12.1144 10.2104 11.9864 10.2525 11.8799 10.3298C11.7734 10.4071 11.6938 10.5158 11.6522 10.6407C11.6107 10.7667 11.6107 10.9028 11.6524 11.0288C11.694 11.1549 11.775 11.2642 11.8835 11.3407L14.3897 13.1657L13.4335 16.1157C13.3922 16.2412 13.3917 16.3765 13.4321 16.5023C13.4726 16.628 13.5518 16.7378 13.6585 16.8157C13.7663 16.8919 13.8951 16.9329 14.0272 16.9329C14.1593 16.9329 14.2881 16.8919 14.396 16.8157L16.9022 14.9907L19.4085 16.8157C19.5172 16.8902 19.6454 16.9315 19.7772 16.9344C19.9094 16.9334 20.038 16.892 20.146 16.8157C20.2526 16.7378 20.3319 16.628 20.3723 16.5023C20.4127 16.3765 20.4122 16.2412 20.371 16.1157L19.4147 13.1657L21.921 11.3407C22.0294 11.2642 22.1104 11.1549 22.1521 11.0288C22.1937 10.9028 22.1938 10.7667 22.1522 10.6407ZM18.3147 12.4219C18.2074 12.4994 18.1273 12.6088 18.0857 12.7345C18.0442 12.8602 18.0434 12.9958 18.0835 13.1219L18.5897 14.6719L17.271 13.7094C17.1635 13.6322 17.0345 13.5907 16.9022 13.5907C16.7699 13.5907 16.6409 13.6322 16.5335 13.7094L15.2147 14.6719L15.721 13.1219C15.761 12.9958 15.7602 12.8602 15.7187 12.7345C15.6772 12.6088 15.597 12.4994 15.4897 12.4219L14.171 11.4594H15.8022C15.9342 11.4602 16.063 11.4188 16.1698 11.3412C16.2766 11.2636 16.3559 11.154 16.396 11.0282L16.9022 9.47818L17.4085 11.0282C17.4486 11.154 17.5278 11.2636 17.6346 11.3412C17.7414 11.4188 17.8702 11.4602 18.0022 11.4594H19.6335L18.3147 12.4219Z" fill="#3D1551"/>
<path d="M16.9017 4.19678C14.768 4.19619 12.7165 5.01987 11.1757 6.49584C9.63482 7.97181 8.7237 9.98595 8.63256 12.1177C8.54142 14.2495 9.2773 16.334 10.6865 17.9361C12.0958 19.5382 14.0695 20.534 16.1954 20.7155C16.4329 20.7343 16.6642 20.7468 16.9017 20.7468C17.1142 20.7468 17.3329 20.7343 17.5454 20.7155H17.6079V20.7093C19.7331 20.5278 21.706 19.5324 23.1147 17.9308C24.5234 16.3293 25.2589 14.2455 25.1678 12.1146C25.0767 9.98363 24.1658 7.97026 22.6256 6.49488C21.0853 5.01949 19.0346 4.19615 16.9017 4.19678ZM23.0329 15.8968C23.0313 15.8968 23.0297 15.8974 23.0285 15.8986C23.0273 15.8998 23.0267 15.9014 23.0267 15.903C22.4676 16.905 21.6707 17.754 20.7061 18.3752C19.7415 18.9965 18.6389 19.3709 17.4954 19.4655L17.4892 19.4718H17.4829C17.0921 19.5103 16.6983 19.5082 16.3079 19.4655C14.7971 19.3368 13.3686 18.7225 12.2358 17.7145C11.1031 16.7066 10.327 15.359 10.0237 13.8734C9.72029 12.3878 9.90591 10.8439 10.5528 9.47253C11.1996 8.10115 12.273 6.97598 13.6123 6.26521C14.9517 5.55445 16.4852 5.29629 17.9834 5.52931C19.4817 5.76234 20.8643 6.47404 21.9245 7.55802C22.9847 8.64199 23.6656 10.04 23.8654 11.5431C24.0652 13.0461 23.7732 14.5735 23.0329 15.8968Z" fill="#3D1551"/>
<path d="M33.7023 30.7407L31.3523 27.097C29.6711 24.5032 27.9919 21.9053 26.3148 19.3032C26.4461 19.2532 26.5961 19.197 26.7461 19.147C27.0848 19.0791 27.4067 18.9448 27.6932 18.7517C27.9796 18.5586 28.2249 18.3106 28.4148 18.022C28.521 17.6957 28.5619 17.3517 28.5351 17.0096C28.5083 16.6675 28.4143 16.334 28.2586 16.0282C28.1117 15.7084 28.0329 15.3614 28.0273 15.0095C28.1821 14.7087 28.397 14.4428 28.6586 14.2282C28.9368 14.0176 29.1706 13.7539 29.3465 13.4525C29.5224 13.1511 29.637 12.8179 29.6836 12.472C29.6377 12.1268 29.5234 11.7942 29.3474 11.4937C29.1714 11.1933 28.9372 10.9309 28.6586 10.722C28.3979 10.504 28.1833 10.2363 28.0273 9.93449C28.0329 9.58254 28.1117 9.23561 28.2586 8.91574C28.4142 8.61106 28.5081 8.27864 28.5349 7.93757C28.5617 7.59651 28.5209 7.2535 28.4148 6.92824C28.2244 6.64017 27.9789 6.39251 27.6926 6.19946C27.4062 6.00642 27.0846 5.87177 26.7461 5.80324C26.4095 5.71809 26.093 5.56729 25.8148 5.35949C25.6765 5.04144 25.6001 4.69992 25.5898 4.35324C25.5992 4.0088 25.5406 3.66588 25.4173 3.34413C25.2939 3.02239 25.1083 2.72814 24.8711 2.47824C24.2737 2.12657 23.5615 2.02546 22.8898 2.19699C22.5497 2.26721 22.1987 2.26721 21.8586 2.19699C21.5968 1.97769 21.3821 1.70769 21.2273 1.40324C21.0852 1.0843 20.881 0.796818 20.6267 0.557538C20.3724 0.318258 20.0731 0.13196 19.7461 0.00949123C19.4075 -0.0196203 19.0664 0.0183944 18.7425 0.121355C18.4186 0.224316 18.1182 0.390199 17.8586 0.609491C17.5747 0.825859 17.2491 0.981194 16.9023 1.06574C16.5555 0.981194 16.23 0.825859 15.9461 0.609491C15.6874 0.390681 15.388 0.225055 15.0652 0.122098C14.7424 0.0191405 14.4025 -0.0191255 14.0648 0.00949123C13.7365 0.130883 13.4357 0.316725 13.1803 0.556082C12.9248 0.795439 12.7198 1.08348 12.5773 1.40324C12.4224 1.7058 12.2101 1.97537 11.9523 2.19699C11.6101 2.26711 11.2571 2.26711 10.9148 2.19699C10.2452 2.02538 9.53491 2.12654 8.93983 2.47824C8.69994 2.72783 8.51225 3.02278 8.38776 3.34581C8.26327 3.66884 8.20448 4.01346 8.21483 4.35949C8.20845 4.70532 8.12968 5.04597 7.98358 5.35949C7.71109 5.56764 7.39818 5.71665 7.06483 5.79699C6.37962 5.93555 5.77728 6.3401 5.38983 6.92199C5.28363 7.24829 5.24277 7.59232 5.26958 7.93441C5.29639 8.27651 5.39035 8.60997 5.54608 8.91574C5.69299 9.23561 5.77174 9.58254 5.77733 9.93449C5.62133 10.2363 5.40673 10.504 5.14608 10.722C4.86746 10.9309 4.63329 11.1933 4.45729 11.4937C4.2813 11.7942 4.167 12.1268 4.12108 12.472C4.16768 12.8179 4.28224 13.1511 4.45815 13.4525C4.63407 13.7539 4.86786 14.0176 5.14608 14.2282C5.40768 14.4428 5.62252 14.7087 5.77733 15.0095C5.77174 15.3614 5.69299 15.7084 5.54608 16.0282C5.39046 16.3329 5.29655 16.6653 5.26974 17.0064C5.24292 17.3475 5.28374 17.6905 5.38983 18.0157C5.57879 18.3052 5.8238 18.5538 6.11041 18.747C6.39701 18.9403 6.71941 19.0741 7.05858 19.1407C7.20233 19.197 7.35233 19.247 7.48983 19.3032C5.80858 21.9032 4.12942 24.5012 2.45233 27.097L0.102332 30.7407C0.0345461 30.8428 -0.0010887 30.9629 2.53454e-05 31.0854C0.00113939 31.208 0.0389513 31.3274 0.108582 31.4282C0.176485 31.5291 0.272523 31.6077 0.384757 31.6544C0.49699 31.701 0.620466 31.7137 0.739832 31.6907L5.00858 30.897L6.04608 35.122C6.07621 35.24 6.14017 35.3467 6.23012 35.4289C6.32006 35.511 6.43205 35.5651 6.55233 35.5845C6.58521 35.5917 6.61868 35.5959 6.65233 35.597C6.75707 35.5977 6.86026 35.5717 6.95213 35.5213C7.04399 35.471 7.12151 35.3981 7.17733 35.3095L13.9148 24.8782C13.9648 24.8907 14.0086 24.922 14.0586 24.9345C14.161 24.9589 14.2658 24.9715 14.3711 24.972C14.9448 24.9087 15.4899 24.6881 15.9461 24.3345C16.23 24.1181 16.5555 23.9628 16.9023 23.8782C17.2491 23.9628 17.5747 24.1181 17.8586 24.3345C18.1184 24.5555 18.4198 24.7224 18.7449 24.8255C19.0701 24.9285 19.4126 24.9656 19.7523 24.9345C19.8023 24.922 19.8461 24.8907 19.8898 24.8782L26.6273 35.3095C26.6832 35.3981 26.7607 35.471 26.8525 35.5213C26.9444 35.5717 27.0476 35.5977 27.1523 35.597C27.186 35.5959 27.2195 35.5917 27.2523 35.5845C27.3726 35.5651 27.4846 35.511 27.5745 35.4289C27.6645 35.3467 27.7285 35.24 27.7586 35.122L28.7961 30.897L33.0648 31.6907C33.1842 31.713 33.3074 31.7001 33.4195 31.6535C33.5316 31.6068 33.6277 31.5286 33.6961 31.4282C33.7657 31.3274 33.8035 31.208 33.8046 31.0854C33.8058 30.9629 33.7701 30.8428 33.7023 30.7407ZM6.91483 33.4095L6.08358 30.0282C6.04624 29.8731 5.95099 29.7382 5.81736 29.651C5.68373 29.5639 5.52183 29.5311 5.36483 29.5595L1.93983 30.197L3.50233 27.7782C5.06483 25.3532 6.6315 22.9282 8.20233 20.5032C8.20913 20.532 8.21331 20.5613 8.21483 20.5907C8.20542 20.9352 8.26406 21.2781 8.3874 21.5998C8.51073 21.9216 8.69634 22.2158 8.93358 22.4657C9.53107 22.8171 10.2432 22.9182 10.9148 22.747C11.255 22.6768 11.6059 22.6768 11.9461 22.747C12.2094 22.9648 12.4243 23.2352 12.5773 23.5407C12.6961 23.722 12.8148 23.9032 12.9398 24.0782L6.91483 33.4095ZM19.6523 23.5907C19.6018 23.6481 19.5372 23.6912 19.4648 23.7157C19.2898 23.7532 18.8273 23.472 18.5273 23.2782C18.0574 22.9133 17.4943 22.6881 16.9023 22.6282C16.3104 22.6881 15.7473 22.9133 15.2773 23.2782C14.9773 23.472 14.5148 23.7595 14.3461 23.722C14.2695 23.6927 14.2009 23.6455 14.1461 23.5845C13.9525 23.3679 13.7828 23.1311 13.6398 22.8782C13.3812 22.3624 12.9855 21.9277 12.4961 21.622C12.212 21.4927 11.9018 21.4306 11.5898 21.4407C11.318 21.446 11.0467 21.4669 10.7773 21.5032C10.3898 21.547 9.86483 21.6095 9.71483 21.4907C9.56483 21.372 9.50233 20.8407 9.45858 20.4532C9.45097 19.868 9.27995 19.2965 8.96483 18.8032C8.9151 18.7408 8.85849 18.6842 8.79608 18.6345C8.77223 18.6143 8.74719 18.5955 8.72108 18.5782L8.71483 18.572H8.70858C8.33493 18.2987 7.91601 18.0935 7.47108 17.9657C7.10233 17.8345 6.60233 17.6595 6.51483 17.472C6.42733 17.297 6.60233 16.8032 6.72733 16.4407C6.97769 15.9092 7.07094 15.3172 6.99608 14.7345C6.81254 14.1871 6.47644 13.7035 6.02733 13.3407C5.75233 13.0657 5.37108 12.6845 5.37108 12.472C5.37108 12.2595 5.75233 11.8782 6.02733 11.6032C6.47644 11.2404 6.81254 10.7569 6.99608 10.2095C7.07094 9.62675 6.97769 9.03476 6.72733 8.50324C6.60233 8.14074 6.42733 7.64699 6.51483 7.46574C6.60233 7.28449 7.10858 7.10949 7.47733 6.97824C8.04074 6.84577 8.55462 6.55522 8.95858 6.14074C9.27836 5.65161 9.45183 5.08134 9.45858 4.49699C9.50233 4.10949 9.55858 3.58449 9.71483 3.45949C9.87108 3.33449 10.3898 3.39699 10.7773 3.44074C11.3501 3.56275 11.9456 3.52161 12.4961 3.32199C12.987 3.01802 13.3831 2.5829 13.6398 2.06574C13.8461 1.72824 14.1336 1.27199 14.3398 1.22824C14.5148 1.18449 14.9773 1.47824 15.2773 1.66574C15.7473 2.03064 16.3104 2.25589 16.9023 2.31574C17.4943 2.25589 18.0574 2.03064 18.5273 1.66574C18.8273 1.47824 19.2836 1.19074 19.4648 1.22824C19.6711 1.27199 19.9586 1.72824 20.1648 2.06574C20.4215 2.5829 20.8177 3.01802 21.3086 3.32199C21.8591 3.52161 22.4546 3.56275 23.0273 3.44074C23.4148 3.39699 23.9398 3.33449 24.0898 3.45324C24.2398 3.57199 24.3023 4.10324 24.3461 4.49074C24.3537 5.076 24.5247 5.6475 24.8398 6.14074C25.2498 6.5552 25.767 6.84735 26.3336 6.98449C26.7023 7.10949 27.2023 7.28449 27.2898 7.47199C27.3773 7.64699 27.2023 8.14074 27.0773 8.50324C26.827 9.03476 26.7337 9.62675 26.8086 10.2095C26.9921 10.7569 27.3282 11.2404 27.7773 11.6032C28.0523 11.8782 28.4336 12.2595 28.4336 12.472C28.4336 12.6845 28.0523 13.0657 27.7773 13.3407C27.3282 13.7035 26.9921 14.1871 26.8086 14.7345C26.7337 15.3172 26.827 15.9092 27.0773 16.4407C27.2023 16.8032 27.3773 17.297 27.2898 17.4782C27.2023 17.6595 26.6961 17.8407 26.3336 17.9657C25.8656 18.0936 25.4264 18.31 25.0398 18.6032C24.9705 18.6652 24.9058 18.732 24.8461 18.8032C24.5263 19.2924 24.3528 19.8626 24.3461 20.447C24.3023 20.8345 24.2461 21.3595 24.0898 21.4845C23.9336 21.6095 23.4148 21.547 23.0273 21.5032C22.4548 21.3781 21.8584 21.4193 21.3086 21.622C20.8192 21.9277 20.4235 22.3624 20.1648 22.8782C20.0204 23.1336 19.8485 23.3726 19.6523 23.5907ZM28.4398 29.5595C28.2828 29.5311 28.1209 29.5639 27.9873 29.651C27.8537 29.7382 27.7584 29.8731 27.7211 30.0282L26.8898 33.4095L20.8648 24.0782C20.9898 23.9032 21.1086 23.722 21.2273 23.5407C21.3805 23.237 21.593 22.9671 21.8523 22.747C22.1946 22.6769 22.5476 22.6769 22.8898 22.747C23.5594 22.9186 24.2698 22.8174 24.8648 22.4657C25.1042 22.217 25.2915 21.9231 25.416 21.6012C25.5405 21.2793 25.5996 20.9358 25.5898 20.5907C25.5909 20.5612 25.5951 20.5319 25.6023 20.5032C27.1711 22.9282 28.7377 25.3532 30.3023 27.7782L31.8648 30.197L28.4398 29.5595Z" fill="#3D1551"/>
</svg>
