<svg width="30" height="30" viewBox="0 0 30 30" fill="none" xmlns="http://www.w3.org/2000/svg">
<path d="M24.0625 3.4375H5.9375C4.55679 3.4375 3.4375 4.55679 3.4375 5.9375V24.0625C3.4375 25.4432 4.55679 26.5625 5.9375 26.5625H24.0625C25.4432 26.5625 26.5625 25.4432 26.5625 24.0625V5.9375C26.5625 4.55679 25.4432 3.4375 24.0625 3.4375Z" stroke="#3D1551" stroke-linecap="round" stroke-linejoin="round"/>
<path d="M19.508 21.2496C19.1493 21.2497 18.7982 21.1459 18.4973 20.9507C18.1964 20.7554 17.9585 20.4772 17.8124 20.1496L15.0017 13.8434L13.3549 17.5384H13.8786C14.3648 17.5473 14.828 17.7467 15.1687 18.0937C15.5093 18.4406 15.7002 18.9075 15.7002 19.3937C15.7002 19.88 15.5093 20.3468 15.1687 20.6937C14.828 21.0407 14.3648 21.2401 13.8786 21.249H10.4955C10.1862 21.2488 9.88193 21.1713 9.61023 21.0236C9.33853 20.8759 9.10805 20.6626 8.93971 20.4032C8.77138 20.1437 8.67053 19.8464 8.64632 19.5381C8.62211 19.2298 8.67532 18.9203 8.8011 18.6378L12.4799 10.3865C12.6974 9.89932 13.0512 9.48547 13.4987 9.1949C13.9462 8.90434 14.4682 8.74949 15.0017 8.74902C15.5353 8.74941 16.0573 8.90423 16.5048 9.1948C16.9523 9.48538 17.3062 9.89927 17.5236 10.3865L21.2024 18.6384C21.3283 18.9209 21.3816 19.2304 21.3575 19.5388C21.3334 19.8472 21.2325 20.1446 21.0642 20.4041C20.8958 20.6636 20.6653 20.8768 20.3935 21.0245C20.1217 21.1722 19.8173 21.2496 19.508 21.2496Z" stroke="#3D1551" stroke-linecap="round" stroke-linejoin="round"/>
</svg>
