<svg width="40" height="40" viewBox="0 0 40 40" fill="none" xmlns="http://www.w3.org/2000/svg">
<path d="M30.0005 30C30.6635 30 31.2994 29.7366 31.7682 29.2678C32.2371 28.7989 32.5005 28.163 32.5005 27.5V21.395C32.5005 20.732 32.2371 20.0961 31.7682 19.6272C31.2994 19.1584 30.6635 18.895 30.0005 18.895H26.5305C26.5305 18.0167 26.5821 17.1383 26.6855 16.26C26.8405 15.33 27.0988 14.5033 27.4605 13.78C27.8221 13.0567 28.288 12.4875 28.858 12.0725C29.4246 11.6075 30.148 11.375 31.028 11.375V7.5C29.5813 7.5 28.3146 7.81 27.228 8.43C26.1488 9.04219 25.2216 9.88989 24.5155 10.91C23.8045 12.0329 23.281 13.264 22.9655 14.555C22.6464 15.9794 22.4904 17.4354 22.5005 18.895V27.5C22.5005 28.163 22.7638 28.7989 23.2327 29.2678C23.7015 29.7366 24.3374 30 25.0005 30H30.0005ZM15.0005 30C15.6635 30 16.2994 29.7366 16.7682 29.2678C17.2371 28.7989 17.5005 28.163 17.5005 27.5V21.395C17.5005 20.732 17.2371 20.0961 16.7682 19.6272C16.2994 19.1584 15.6635 18.895 15.0005 18.895H11.5305C11.5305 18.0167 11.5821 17.1383 11.6855 16.26C11.8421 15.33 12.1005 14.5033 12.4605 13.78C12.8221 13.0567 13.288 12.4875 13.858 12.0725C14.4246 11.6075 15.148 11.375 16.028 11.375V7.5C14.5813 7.5 13.3146 7.81 12.228 8.43C11.1488 9.04219 10.2216 9.88989 9.51546 10.91C8.80448 12.0329 8.28097 13.264 7.96546 14.555C7.64641 15.9794 7.49041 17.4354 7.50046 18.895V27.5C7.50046 28.163 7.76385 28.7989 8.23269 29.2678C8.70153 29.7366 9.33741 30 10.0005 30H15.0005Z" fill="#3D1551"/>
</svg>
