<svg width="40" height="40" viewBox="0 0 40 40" fill="none" xmlns="http://www.w3.org/2000/svg">
<path d="M9.99954 10C9.3365 10 8.70062 10.2634 8.23178 10.7322C7.76294 11.2011 7.49954 11.837 7.49954 12.5V18.605C7.49954 19.268 7.76294 19.9039 8.23178 20.3728C8.70062 20.8416 9.3365 21.105 9.99954 21.105H13.4695C13.4695 21.9833 13.4179 22.8617 13.3145 23.74C13.1595 24.67 12.9012 25.4967 12.5395 26.22C12.1779 26.9433 11.712 27.5125 11.142 27.9275C10.5754 28.3925 9.85204 28.625 8.97204 28.625V32.5C10.4187 32.5 11.6854 32.19 12.772 31.57C13.8512 30.9578 14.7784 30.1101 15.4845 29.09C16.1955 27.9671 16.719 26.736 17.0345 25.445C17.3536 24.0206 17.5096 22.5646 17.4995 21.105V12.5C17.4995 11.837 17.2362 11.2011 16.7673 10.7322C16.2985 10.2634 15.6626 10 14.9995 10H9.99954ZM24.9995 10C24.3365 10 23.7006 10.2634 23.2318 10.7322C22.7629 11.2011 22.4995 11.837 22.4995 12.5V18.605C22.4995 19.268 22.7629 19.9039 23.2318 20.3728C23.7006 20.8416 24.3365 21.105 24.9995 21.105H28.4695C28.4695 21.9833 28.4179 22.8617 28.3145 23.74C28.1579 24.67 27.8995 25.4967 27.5395 26.22C27.1779 26.9433 26.712 27.5125 26.142 27.9275C25.5754 28.3925 24.852 28.625 23.972 28.625V32.5C25.4187 32.5 26.6854 32.19 27.772 31.57C28.8512 30.9578 29.7784 30.1101 30.4845 29.09C31.1955 27.9671 31.719 26.736 32.0345 25.445C32.3536 24.0206 32.5096 22.5646 32.4995 21.105V12.5C32.4995 11.837 32.2362 11.2011 31.7673 10.7322C31.2985 10.2634 30.6626 10 29.9995 10H24.9995Z" fill="#3D1551"/>
</svg>
