<svg width="30" height="30" viewBox="0 0 30 30" fill="none" xmlns="http://www.w3.org/2000/svg">
<path d="M15 7.5L16.3406 8.80594L11.1094 14.0625H22.5V15.9375H11.1094L16.3406 21.1622L15 22.5L7.5 15L15 7.5Z" fill="#3D1551"/>
<path d="M15 28.125C17.5959 28.125 20.1335 27.3552 22.2919 25.913C24.4502 24.4709 26.1325 22.421 27.1259 20.0227C28.1193 17.6244 28.3792 14.9854 27.8728 12.4394C27.3664 9.89345 26.1163 7.55479 24.2808 5.71923C22.4452 3.88367 20.1066 2.63363 17.5606 2.1272C15.0146 1.62077 12.3756 1.88069 9.97727 2.87409C7.57899 3.86749 5.52915 5.54975 4.08696 7.70815C2.64476 9.86654 1.87499 12.4041 1.87499 15C1.87897 18.4798 3.26305 21.8158 5.7236 24.2764C8.18416 26.737 11.5202 28.121 15 28.125ZM15 3.75001C17.225 3.75001 19.4001 4.40981 21.2502 5.64597C23.1002 6.88214 24.5422 8.63915 25.3936 10.6948C26.2451 12.7505 26.4679 15.0125 26.0338 17.1948C25.5997 19.3771 24.5283 21.3816 22.9549 22.955C21.3816 24.5283 19.377 25.5998 17.1948 26.0338C15.0125 26.4679 12.7505 26.2451 10.6948 25.3937C8.63914 24.5422 6.88213 23.1002 5.64596 21.2502C4.4098 19.4001 3.74999 17.225 3.74999 15C3.75347 12.0174 4.93985 9.15792 7.04888 7.04889C9.15791 4.93986 12.0174 3.75348 15 3.75001Z" fill="#3D1551"/>
</svg>
