<svg width="36" height="36" viewBox="0 0 36 36" fill="none" xmlns="http://www.w3.org/2000/svg">
<g clip-path="url(#clip0_617_34742)">
<path d="M19.608 17.9996L24.468 13.1396C24.6318 12.9483 24.7174 12.7023 24.7077 12.4506C24.698 12.1989 24.5936 11.9602 24.4155 11.7821C24.2374 11.604 23.9987 11.4996 23.747 11.4899C23.4954 11.4802 23.2493 11.5658 23.058 11.7296L18.198 16.5396L13.308 11.6496C13.1167 11.4858 12.8706 11.4002 12.6189 11.4099C12.3673 11.4196 12.1285 11.524 11.9504 11.7021C11.7723 11.8802 11.668 12.1189 11.6583 12.3706C11.6485 12.6223 11.7342 12.8683 11.898 13.0596L16.778 17.9996L11.998 22.7196C11.8933 22.8093 11.8083 22.9196 11.7483 23.0437C11.6882 23.1677 11.6545 23.3029 11.6492 23.4406C11.6439 23.5783 11.6671 23.7156 11.7173 23.844C11.7676 23.9723 11.8439 24.0888 11.9413 24.1863C12.0388 24.2837 12.1553 24.36 12.2837 24.4103C12.412 24.4605 12.5493 24.4838 12.687 24.4784C12.8248 24.4731 12.9599 24.4394 13.084 24.3794C13.208 24.3193 13.3183 24.2343 13.408 24.1296L18.178 19.3596L22.918 24.0996C23.1093 24.2635 23.3554 24.3491 23.607 24.3393C23.8587 24.3296 24.0974 24.2253 24.2755 24.0472C24.4536 23.8691 24.558 23.6304 24.5677 23.3787C24.5774 23.127 24.4918 22.8809 24.328 22.6896L19.608 17.9996Z" fill="#060208"/>
<path d="M18 34C14.8355 34 11.7421 33.0616 9.11088 31.3035C6.4797 29.5454 4.42894 27.0466 3.21793 24.1229C2.00693 21.1993 1.69008 17.9823 2.30744 14.8786C2.92481 11.7749 4.44866 8.92394 6.6863 6.6863C8.92394 4.44866 11.7749 2.92481 14.8786 2.30744C17.9823 1.69008 21.1993 2.00693 24.1229 3.21793C27.0466 4.42894 29.5454 6.4797 31.3035 9.11088C33.0616 11.7421 34 14.8355 34 18C34 22.2435 32.3143 26.3131 29.3137 29.3137C26.3131 32.3143 22.2435 34 18 34ZM18 4.00001C15.2311 4.00001 12.5243 4.82109 10.222 6.35943C7.91974 7.89777 6.12532 10.0843 5.06569 12.6424C4.00607 15.2006 3.72882 18.0155 4.26901 20.7313C4.80921 23.447 6.14258 25.9416 8.10051 27.8995C10.0584 29.8574 12.553 31.1908 15.2687 31.731C17.9845 32.2712 20.7994 31.9939 23.3576 30.9343C25.9157 29.8747 28.1022 28.0803 29.6406 25.778C31.1789 23.4757 32 20.7689 32 18C32 14.287 30.525 10.726 27.8995 8.10051C25.274 5.475 21.713 4.00001 18 4.00001Z" fill="#060208"/>
</g>
<defs>
<clipPath id="clip0_617_34742">
<rect width="36" height="36" fill="white"/>
</clipPath>
</defs>
</svg>
