<svg width="30" height="30" viewBox="0 0 30 30" fill="none" xmlns="http://www.w3.org/2000/svg">
<path d="M10.5 6.75C10.5 7.0065 10.4745 7.257 10.425 7.5H15C15.3978 7.5 15.7794 7.65804 16.0607 7.93934C16.342 8.22064 16.5 8.60218 16.5 9V12H15C14.5743 11.9992 14.1533 12.0894 13.7652 12.2645C13.3772 12.4397 13.031 12.6957 12.75 13.0155C12.2835 13.545 12 14.2395 12 15V16.5H9C8.60218 16.5 8.22064 16.342 7.93934 16.0607C7.65804 15.7794 7.5 15.3978 7.5 15V10.425C7.00505 10.5255 6.49495 10.5255 6 10.425V15C6 15.7956 6.31607 16.5587 6.87868 17.1213C7.44129 17.6839 8.20435 18 9 18H12V21C11.9985 21.5725 12.1613 22.1334 12.4693 22.616C12.7772 23.0986 13.2172 23.4827 13.737 23.7225C13.5369 22.9056 13.4625 22.0629 13.5165 21.2235C13.5055 21.1495 13.5 21.0748 13.5 21V15C13.5 14.6022 13.658 14.2206 13.9393 13.9393C14.2206 13.658 14.6022 13.5 15 13.5H21C21.075 13.5 21.15 13.506 21.2235 13.5165C22.0628 13.4641 22.9053 13.5384 23.7225 13.737C23.4807 13.2187 23.0962 12.78 22.614 12.4723C22.1318 12.1647 21.572 12.0008 21 12H18V9C18 8.20435 17.6839 7.44129 17.1213 6.87868C16.5587 6.31607 15.7956 6 15 6H10.425C10.4745 6.243 10.5 6.4935 10.5 6.75ZM9 6.75C9 7.34674 8.76295 7.91903 8.34099 8.34099C7.91903 8.76295 7.34674 9 6.75 9C6.15326 9 5.58097 8.76295 5.15901 8.34099C4.73705 7.91903 4.5 7.34674 4.5 6.75C4.5 6.15326 4.73705 5.58097 5.15901 5.15901C5.58097 4.73705 6.15326 4.5 6.75 4.5C7.34674 4.5 7.91903 4.73705 8.34099 5.15901C8.76295 5.58097 9 6.15326 9 6.75ZM25.5 6.75C25.5 7.34674 25.2629 7.91903 24.841 8.34099C24.419 8.76295 23.8467 9 23.25 9C22.6533 9 22.081 8.76295 21.659 8.34099C21.2371 7.91903 21 7.34674 21 6.75C21 6.15326 21.2371 5.58097 21.659 5.15901C22.081 4.73705 22.6533 4.5 23.25 4.5C23.8467 4.5 24.419 4.73705 24.841 5.15901C25.2629 5.58097 25.5 6.15326 25.5 6.75ZM9 23.25C9 23.8467 8.76295 24.419 8.34099 24.841C7.91903 25.2629 7.34674 25.5 6.75 25.5C6.15326 25.5 5.58097 25.2629 5.15901 24.841C4.73705 24.419 4.5 23.8467 4.5 23.25C4.5 22.6533 4.73705 22.081 5.15901 21.659C5.58097 21.2371 6.15326 21 6.75 21C7.34674 21 7.91903 21.2371 8.34099 21.659C8.76295 22.081 9 22.6533 9 23.25ZM21.75 28.5C23.5402 28.5 25.2571 27.7888 26.523 26.523C27.7888 25.2571 28.5 23.5402 28.5 21.75C28.5 19.9598 27.7888 18.2429 26.523 16.977C25.2571 15.7112 23.5402 15 21.75 15C19.9598 15 18.2429 15.7112 16.977 16.977C15.7112 18.2429 15 19.9598 15 21.75C15 23.5402 15.7112 25.2571 16.977 26.523C18.2429 27.7888 19.9598 28.5 21.75 28.5ZM20.406 18.906L19.0605 20.25H21.375C22.469 20.25 23.5182 20.6846 24.2918 21.4582C25.0654 22.2318 25.5 23.281 25.5 24.375V24.75C25.5 24.9489 25.421 25.1397 25.2803 25.2803C25.1397 25.421 24.9489 25.5 24.75 25.5C24.5511 25.5 24.3603 25.421 24.2197 25.2803C24.079 25.1397 24 24.9489 24 24.75V24.375C24 23.6788 23.7234 23.0111 23.2312 22.5188C22.7389 22.0266 22.0712 21.75 21.375 21.75H19.0605L20.406 23.094C20.5468 23.2348 20.6259 23.4258 20.6259 23.625C20.6259 23.8242 20.5468 24.0152 20.406 24.156C20.2652 24.2968 20.0742 24.3759 19.875 24.3759C19.6758 24.3759 19.4848 24.2968 19.344 24.156L16.716 21.5265C16.5763 21.3858 16.4982 21.1954 16.4988 20.9971C16.4993 20.7989 16.5785 20.6089 16.719 20.469L19.344 17.844C19.4848 17.7032 19.6758 17.6241 19.875 17.6241C20.0742 17.6241 20.2652 17.7032 20.406 17.844C20.5468 17.9848 20.6259 18.1758 20.6259 18.375C20.6259 18.5742 20.5468 18.7652 20.406 18.906Z" fill="#3D1551"/>
</svg>
