<svg width="24" height="24" viewBox="0 0 24 24" fill="none" xmlns="http://www.w3.org/2000/svg">
<path d="M21.0017 18.9997L15.8477 13.8457C16.8005 12.3976 17.1821 10.6475 16.9187 8.93418C16.6552 7.22086 15.7654 5.66623 14.4216 4.57129C13.0777 3.47635 11.3754 2.91898 9.64416 3.0071C7.91294 3.09523 6.276 3.82257 5.05026 5.04831C3.82452 6.27404 3.09718 7.91099 3.00906 9.6422C2.92094 11.3734 3.4783 13.0758 4.57324 14.4196C5.66819 15.7635 7.22281 16.6533 8.93613 16.9167C10.6495 17.1802 12.3996 16.7986 13.8477 15.8457L19.0017 20.9997L21.0017 18.9997ZM5.00169 9.99973C5.00169 7.24273 7.24469 4.99973 10.0017 4.99973C12.7587 4.99973 15.0017 7.24273 15.0017 9.99973C15.0017 12.7567 12.7587 14.9997 10.0017 14.9997C7.24469 14.9997 5.00169 12.7567 5.00169 9.99973Z" fill="#4C4A55"/>
</svg>
