<svg width="233" height="234" viewBox="0 0 233 234" fill="none" xmlns="http://www.w3.org/2000/svg">
<g opacity="0.2">
<path opacity="0.3" d="M128.184 233.775C128.156 233.775 128.132 233.775 128.107 233.775C119.571 233.771 111.073 232.676 102.754 230.63C102.482 228.904 101.122 227.409 98.4664 227.409C98.3338 227.409 98.1948 227.414 98.0537 227.42C97.0167 227.478 96.1507 227.929 95.5006 228.594C74.8304 222.068 55.5221 209.769 39.7441 193.944C15.8789 169.989 0.012622 137.869 6.478e-06 105.023C-0.00747733 84.1351 6.46901 62.9773 21.3372 43.7182C45.0662 12.9213 74.963 0 104.58 0C104.612 0 104.637 0 104.669 0C137.064 0.0106812 169.045 15.2349 192.98 38.5822C216.909 61.9338 232.867 93.4941 232.878 126.434C232.886 149.621 224.909 173.443 206.364 195.227C183.326 222.34 155.589 233.775 128.184 233.775ZM24.7259 46.3333C10.4282 64.876 4.28652 85.0117 4.27904 105.023C4.26664 136.46 19.5665 167.644 42.7762 190.923C65.9653 214.202 96.976 229.496 128.066 229.496C128.081 229.496 128.089 229.496 128.107 229.496C154.349 229.473 180.722 218.728 203.103 192.454C221.032 171.366 228.588 148.641 228.597 126.434C228.608 94.9097 213.244 64.3244 189.993 41.6442C166.761 18.9682 135.721 4.27859 104.706 4.27859C104.693 4.27859 104.682 4.27859 104.669 4.27859C76.263 4.30426 47.816 16.4515 24.7259 46.3333Z" fill="#E8DBF9"/>
<path opacity="0.3" d="M132.396 206.208C132.389 206.208 132.387 206.208 132.381 206.208C107.227 206.194 81.1831 194.446 61.3232 176.28C41.4826 158.109 27.7487 133.408 27.7344 107.23C27.726 90.7205 33.2547 73.6895 46.0242 57.6699C52.9307 48.9929 61.4365 42.7472 70.8512 38.6995C80.2679 34.6497 90.5849 32.7852 101.171 32.7852C126.032 32.798 152.414 43.0145 172.712 59.791C182.858 68.1836 191.482 78.2311 197.584 89.5124C203.684 100.792 207.257 113.315 207.257 126.574C207.26 140.569 203.272 155.355 194.231 170.282C186.587 182.919 177.057 191.936 166.458 197.758C155.863 203.583 144.225 206.208 132.396 206.208ZM49.3705 60.3362C37.1569 75.6887 32.023 91.6742 32.0145 107.23C31.9995 131.86 45.0406 155.577 64.2141 173.124C83.3534 190.664 108.542 201.93 132.332 201.93C132.349 201.93 132.364 201.93 132.381 201.93C143.589 201.928 154.484 199.454 164.397 194.008C174.307 188.557 183.266 180.128 190.571 168.067C199.248 153.723 202.975 139.754 202.977 126.574C202.977 114.089 199.624 102.282 193.819 91.548C185.118 75.4514 170.873 61.7967 154.319 52.196C137.778 42.5975 118.946 37.0638 101.195 37.0638C101.186 37.0638 101.18 37.0638 101.171 37.0638C91.0852 37.0638 81.352 38.8407 72.5425 42.6317C63.733 46.425 55.8386 52.2174 49.3705 60.3362Z" fill="#E8DBF9"/>
<path opacity="0.3" d="M133.401 178.818C133.367 178.818 133.334 178.818 133.3 178.818C114.574 178.801 95.1243 170.126 80.2443 156.726C65.3836 143.323 55.0111 125.082 54.9961 105.68C54.9897 94.0819 58.7572 82.1313 67.37 70.8586C71.8945 64.925 77.3876 60.6528 83.4538 57.8966C89.5178 55.1383 96.1442 53.8896 102.965 53.8896C102.967 53.8896 102.967 53.8896 102.969 53.8896C121.743 53.9131 142.067 63.2272 157.854 77.1685C165.741 84.1477 172.494 92.305 177.299 101.123C182.099 109.937 184.956 119.431 184.958 129.033C184.966 139.199 181.718 149.462 174.354 158.907C163.543 172.831 148.691 178.818 133.401 178.818ZM70.772 73.4566C62.6852 84.0643 59.2833 95.0056 59.2768 105.68C59.2619 123.5 68.916 140.757 83.1096 153.548C97.2689 166.328 115.878 174.539 133.247 174.539C133.266 174.539 133.281 174.539 133.3 174.537C147.556 174.511 160.922 169.16 170.978 156.279C177.784 147.518 180.668 138.296 180.677 129.033C180.679 120.288 178.068 111.483 173.54 103.169C166.755 90.7014 155.651 79.3901 142.948 71.2542C130.264 63.1161 115.998 58.1682 103.006 58.1682C102.993 58.1682 102.982 58.1682 102.969 58.1682C96.6638 58.1682 90.6618 59.3207 85.2243 61.7925C79.7867 64.2686 74.8923 68.0618 70.772 73.4566Z" fill="#E8DBF9"/>
<path opacity="0.3" d="M129.304 152.514C129.302 152.514 129.302 152.514 129.3 152.514C118.632 152.49 107.244 147.476 98.3617 140.022C93.9249 136.285 90.1167 131.92 87.3905 127.178C84.6664 122.437 83.0178 117.297 83.0157 112.063C83.0071 106.674 84.8054 101.224 88.7825 96.3038C91.6285 92.7672 95.071 90.212 98.8343 88.572C102.598 86.9277 106.671 86.1879 110.817 86.1879H110.819C121.42 86.2072 132.526 90.939 141.118 98.1834C145.411 101.814 149.078 106.088 151.693 110.788C154.304 115.486 155.867 120.628 155.867 125.927C155.872 130.864 154.492 135.917 151.454 140.719C148.856 144.842 145.482 147.833 141.669 149.747C137.857 151.665 133.634 152.514 129.304 152.514ZM92.116 98.9873C88.7119 103.227 87.3049 107.607 87.2964 112.063C87.2943 116.384 88.667 120.81 91.1025 125.046C94.7439 131.397 100.772 137.255 107.674 141.465C114.561 145.678 122.301 148.233 129.266 148.233C129.276 148.233 129.289 148.233 129.3 148.233C133.08 148.233 136.619 147.497 139.747 145.924C142.873 144.346 145.617 141.94 147.836 138.433C150.462 134.268 151.584 130.079 151.589 125.927C151.589 121.479 150.276 117.047 147.952 112.869C144.475 106.602 138.712 100.95 132.035 96.9154C125.372 92.8784 117.815 90.4687 110.847 90.4687C110.838 90.4687 110.83 90.4687 110.819 90.4687C107.18 90.4687 103.703 91.1165 100.547 92.4936C97.391 93.8748 94.5429 95.9788 92.116 98.9873Z" fill="#E8DBF9"/>
<path opacity="0.3" d="M122.848 130.849C122.843 130.849 122.839 130.849 122.835 130.849C118.293 130.814 113.899 128.347 110.482 124.994C107.095 121.612 104.587 117.252 104.551 112.712C104.54 110.42 105.274 108.074 106.897 106.141C108.045 104.758 109.452 103.736 110.97 103.086C112.49 102.434 114.111 102.147 115.732 102.147C115.734 102.147 115.736 102.147 115.736 102.147C120.1 102.166 124.49 104.131 127.926 107.119C129.641 108.622 131.118 110.396 132.185 112.385C133.25 114.371 133.905 116.587 133.905 118.905C133.911 121.265 133.205 123.709 131.698 125.963C130.599 127.614 129.23 128.869 127.695 129.677C126.164 130.489 124.496 130.849 122.848 130.849ZM110.183 108.88C109.231 110.037 108.84 111.267 108.829 112.712C108.793 115.539 110.658 119.178 113.491 121.954C116.268 124.731 119.903 126.57 122.754 126.57C122.781 126.57 122.807 126.57 122.835 126.57C123.885 126.568 124.826 126.352 125.694 125.894C126.56 125.435 127.379 124.723 128.136 123.589C129.203 121.981 129.62 120.442 129.626 118.905C129.626 117.401 129.2 115.879 128.414 114.408C127.238 112.203 125.232 110.157 122.914 108.712C120.611 107.262 118.017 106.428 115.766 106.428C115.755 106.428 115.747 106.428 115.736 106.428C114.613 106.428 113.579 106.625 112.657 107.02C111.735 107.418 110.914 108.008 110.183 108.88Z" fill="#E8DBF9"/>
</g>
</svg>
