<svg width="50" height="50" viewBox="0 0 50 50" fill="none" xmlns="http://www.w3.org/2000/svg">
<circle cx="25" cy="25" r="25" fill="white"/>
<path d="M28.0645 39.7949C27.918 39.8008 27.8242 39.8125 27.7305 39.8125C25.7266 39.8125 23.7285 39.8067 21.7246 39.8184C21.4434 39.8184 21.3672 39.7422 21.3672 39.461C21.373 34.7969 21.373 30.127 21.373 25.4629C21.373 25.3399 21.373 25.2168 21.373 25.0586C20.2832 25.0586 19.2227 25.0586 18.1445 25.0586C18.1445 23.3945 18.1445 21.7598 18.1445 20.0781C18.2559 20.0781 18.3613 20.0781 18.4609 20.0781C19.3398 20.0781 20.2187 20.0723 21.0977 20.084C21.3203 20.084 21.3789 20.0195 21.3789 19.8027C21.3672 18.4961 21.3672 17.1836 21.3789 15.877C21.3848 14.9629 21.5312 14.0723 21.9531 13.2461C22.5566 12.0801 23.5117 11.3242 24.7187 10.8555C25.7031 10.4688 26.7402 10.3281 27.7832 10.3106C29.4824 10.2871 31.1816 10.2988 32.8809 10.293C33.0391 10.293 33.168 10.2871 33.168 10.5098C33.1621 12.1211 33.1621 13.7324 33.1621 15.3438C33.1621 15.3613 33.1562 15.3789 33.1328 15.4551C33.0332 15.4551 32.9219 15.4551 32.8105 15.4551C31.7559 15.4551 30.7012 15.4492 29.6465 15.4551C29.0371 15.4551 28.5449 15.7012 28.2344 16.2344C28.1406 16.3926 28.082 16.5977 28.082 16.7852C28.0645 17.7813 28.082 18.7774 28.0703 19.7735C28.0703 20.0078 28.1406 20.0723 28.3691 20.0723C29.834 20.0606 31.2988 20.0664 32.7637 20.0664C32.8809 20.0664 32.9922 20.0664 33.1914 20.0664C32.9863 21.7422 32.7871 23.3828 32.582 25.041C31.0586 25.041 29.5762 25.041 28.0645 25.041C28.0645 29.9688 28.0645 34.8672 28.0645 39.7949Z" fill="#3D1551"/>
</svg>
