<svg width="34" height="40" viewBox="0 0 34 40" fill="none" xmlns="http://www.w3.org/2000/svg">
<path d="M14.8281 3.24066L17.0503 1L19.2726 3.24066" stroke="#3D1551" stroke-width="1.5" stroke-miterlimit="10" stroke-linecap="round" stroke-linejoin="round"/>
<path d="M17.0508 1V6.10373" stroke="#3D1551" stroke-width="1.5" stroke-miterlimit="10" stroke-linecap="round" stroke-linejoin="round"/>
<path d="M5.69141 8.96698V5.73047H8.90128" stroke="#3D1551" stroke-width="1.5" stroke-miterlimit="10" stroke-linecap="round" stroke-linejoin="round"/>
<path d="M5.69141 5.73047L9.39511 9.34043" stroke="#3D1551" stroke-width="1.5" stroke-miterlimit="10" stroke-linecap="round" stroke-linejoin="round"/>
<path d="M3.34568 19.4232L1 17.1825L3.34568 14.8174" stroke="#3D1551" stroke-width="1.5" stroke-miterlimit="10" stroke-linecap="round" stroke-linejoin="round"/>
<path d="M1 17.1826H6.18518" stroke="#3D1551" stroke-width="1.5" stroke-miterlimit="10" stroke-linecap="round" stroke-linejoin="round"/>
<path d="M25.1953 5.73047H28.4052V8.96698" stroke="#3D1551" stroke-width="1.5" stroke-miterlimit="10" stroke-linecap="round" stroke-linejoin="round"/>
<path d="M28.4068 5.73047L24.7031 9.34043" stroke="#3D1551" stroke-width="1.5" stroke-miterlimit="10" stroke-linecap="round" stroke-linejoin="round"/>
<path d="M30.7539 14.8174L33.0996 17.1825L30.7539 19.4232" stroke="#3D1551" stroke-width="1.5" stroke-miterlimit="10" stroke-linecap="round" stroke-linejoin="round"/>
<path d="M33.0992 17.1826H27.9141" stroke="#3D1551" stroke-width="1.5" stroke-miterlimit="10" stroke-linecap="round" stroke-linejoin="round"/>
<path d="M25.1989 38.3442H8.90263C7.91498 38.3442 7.05078 37.4728 7.05078 36.4769V35.8545C7.05078 31.4977 10.5076 28.0122 14.8286 28.0122H19.273C23.594 28.0122 27.0508 31.4977 27.0508 35.8545V36.4769C27.0508 37.4728 26.1866 38.3442 25.1989 38.3442Z" stroke="#3D1551" stroke-width="1.5" stroke-miterlimit="10" stroke-linecap="round" stroke-linejoin="round"/>
<path d="M17.0516 10.3359C13.9652 10.3359 11.4961 12.8256 11.4961 15.9376C11.4961 19.0496 13.9652 23.7799 17.0516 23.7799C20.1381 23.7799 22.6072 19.0496 22.6072 15.9376C22.6072 12.8256 20.1381 10.3359 17.0516 10.3359Z" stroke="#3D1551" stroke-width="1.5" stroke-miterlimit="10" stroke-linecap="round" stroke-linejoin="round"/>
</svg>
