<svg width="128" height="123" viewBox="0 0 128 123" fill="none" xmlns="http://www.w3.org/2000/svg">
<path opacity="0.2" d="M125.539 122.853C125.539 122.853 92.506 115.323 75.6024 87.3217C58.6987 59.322 56.3128 29.3723 55.7804 24.1896C55.6813 23.2239 55.6773 22.4695 55.7447 21.9331C55.7975 21.7402 55.8504 21.5487 55.9059 21.3558C56.0723 21.2686 56.2771 21.1642 56.5149 21.048C57.1662 21.5236 58.0751 23.7298 58.7423 27.783C60.0383 35.637 66.4497 66.7942 83.4049 87.6863C100.359 108.578 127.323 115.29 127.323 115.29C129.557 119.826 125.539 122.853 125.539 122.853Z" fill="#F79721"/>
<path opacity="0.2" d="M51.0905 78.9348C37.697 54.2088 52.6956 26.4747 55.6113 21.5139C55.6919 21.469 55.7896 21.4161 55.9059 21.3554C55.8504 21.5482 55.7976 21.7398 55.7447 21.9327C48.3795 48.5756 51.0905 78.9348 51.0905 78.9348Z" fill="#8CD8CA"/>
<path opacity="0.2" d="M21.2037 75.6255C20.7493 39.6793 54.7785 21.4202 56.0468 20.753C55.5527 21.3079 55.3347 21.658 55.3242 21.6752C53.5195 23.9224 48.4028 30.31 39.0335 42.1564C27.0021 57.3651 21.2037 75.6255 21.2037 75.6255Z" fill="#8CD8CA"/>
<path opacity="0.2" d="M0 37.1409C11.1201 22.5571 32.2328 20.1117 45.1427 20.1117C51.422 20.1117 55.7632 20.6903 56.067 20.7326C56.0657 20.7339 56.0644 20.7352 56.0631 20.7366C55.2757 20.8317 33.1748 23.5136 20.3243 28.5853C7.23879 33.7496 0 37.1409 0 37.1409Z" fill="#8CD8CA"/>
<path opacity="0.2" d="M56.1635 20.6257C56.1569 20.6218 56.1503 20.6178 56.1437 20.6138C56.1847 20.5319 56.2454 20.413 56.3273 20.2558C56.3511 20.2994 56.3736 20.3404 56.3947 20.3787C56.3128 20.4645 56.2348 20.5465 56.1635 20.6257ZM56.0472 20.5544C53.6402 19.0985 44.7861 13.7559 36.1301 8.72512C30.2604 5.31401 22.7776 2.10105 17.5156 0.000478745H17.5169H25.0658C45.6369 5.31928 53.7155 15.9609 55.9693 19.6468C55.9799 20.0774 56.0182 20.38 56.0472 20.5544Z" fill="#8CD8CA"/>
<path opacity="0.2" d="M98.8251 46.0142C85.8571 28.4922 61.3689 21.9831 56.8203 20.9011C56.9035 20.8628 56.9894 20.8218 57.0806 20.7809C61.4508 21.0187 79.0573 22.3345 87.0527 28.3509C96.2199 35.2484 98.8251 46.0142 98.8251 46.0142Z" fill="#8CD8CA"/>
<path opacity="0.2" d="M105.713 23.4297C94.671 18.3685 84.9938 16.7594 77.149 16.7594C67.1733 16.7594 60.1595 19.362 57.08 20.7808C56.9888 20.8218 56.903 20.8627 56.8197 20.9011C56.7127 20.9526 56.611 21.0015 56.5145 21.0477C56.2767 21.164 56.072 21.2683 55.9055 21.3555C55.7893 21.4163 55.6915 21.4692 55.6109 21.5141C55.4207 21.6184 55.3242 21.6766 55.3242 21.6766C55.3242 21.6766 55.3242 21.6766 55.3242 21.6752C55.3348 21.6581 55.5528 21.308 56.0469 20.7531C56.0508 20.7478 56.0561 20.7425 56.0614 20.7359C56.0627 20.7346 56.064 20.7333 56.0654 20.7319C56.0693 20.7267 56.0746 20.7214 56.0786 20.7174C56.0812 20.728 56.0825 20.7346 56.0825 20.7346C56.0825 20.7346 56.0905 20.7174 56.1063 20.6871C56.1248 20.6659 56.1433 20.6448 56.1631 20.625C56.2345 20.5457 56.3124 20.4638 56.3943 20.3779C58.6534 18.0448 64.868 13.3205 78.5785 12.6784C79.2324 12.6467 79.8732 12.6322 80.5033 12.6322C97.5114 12.6322 105.713 23.4297 105.713 23.4297Z" fill="#8CD8CA"/>
<path opacity="0.2" d="M56.085 20.7349C56.085 20.7349 56.0836 20.7283 56.081 20.7177C56.0744 20.6913 56.0625 20.6371 56.0493 20.5539C56.0202 20.3795 55.9819 20.0769 55.9714 19.6463C55.9198 17.4757 56.5791 12.0631 62.6668 3.45997C63.5691 2.18378 64.5665 1.03442 65.6248 -1.71661e-05H72.373C62.8346 8.38906 57.4933 18.0213 56.3294 20.2553C56.2475 20.4125 56.1867 20.5314 56.1458 20.6133C56.1299 20.6424 56.118 20.6675 56.1088 20.6873C56.0929 20.7177 56.085 20.7349 56.085 20.7349Z" fill="#8CD8CA"/>
</svg>
