<svg width="89" height="145" viewBox="0 0 89 145" fill="none" xmlns="http://www.w3.org/2000/svg">
<g opacity="0.1">
<path d="M54.1146 144.024C41.0128 144.026 29.5544 124.599 34.6285 101.967C34.6285 101.967 26.5404 114.667 18.9043 114.667C17.1421 114.669 15.4049 113.992 13.7947 112.326C5.20878 103.446 23.4056 70.8354 23.4056 70.8354C23.4056 70.8354 15.9965 77.6384 9.27061 77.6384C5.94204 77.6384 2.78004 75.972 0.7679 70.9896C-4.59364 57.7253 19.6729 35.6271 25.4989 30.5739C25.9238 34.1399 26.428 37.9496 27.0279 41.9635C21.433 46.7043 6.18991 60.5185 9.37059 67.8193C10.2142 69.7543 11.7826 70.5126 13.724 70.5126C18.998 70.5126 27.0091 64.9177 30.6168 62.1766C30.7334 62.7452 30.8522 63.3222 30.973 63.895C26.9299 72.5997 16.5526 96.3788 21.7454 100.605C22.4848 101.209 23.266 101.476 24.07 101.474C28.9775 101.474 34.7264 91.5775 36.8344 87.6074C37.0822 88.4843 37.3385 89.3654 37.5968 90.2444C37.8134 104.336 42.2897 115.804 47.8283 119.531C50.3424 125.669 53.1169 131.81 56.1747 137.884C56.1747 137.884 53.6377 131.254 50.0716 120.591C50.6007 120.739 51.136 120.814 51.6755 120.814C53.4376 120.814 55.2311 120.008 56.9683 118.256C66.3354 108.804 43.754 84.3851 43.754 84.3851C43.754 84.3851 57.966 97.0911 65.9042 97.0911C67.4206 97.0911 68.7079 96.6266 69.6244 95.5226C75.3359 88.6343 44.8621 65.7467 44.8621 65.7467C44.8621 65.7467 52.7024 68.4025 58.7346 68.4025C63.4671 68.4025 67.0894 66.7674 64.946 60.9372C60.5343 48.9331 34.6993 41.7739 29.8169 40.5179C29.2961 37.0144 28.8484 33.5442 28.4859 30.1135C35.8846 32.6673 64.8293 43.2695 78.4332 57.2712C89.702 68.8712 81.4536 76.1678 70.7742 76.1678C66.7374 76.1699 62.3548 75.1263 58.5451 72.8809C62.4881 75.2763 96.4154 96.3538 87.5191 106.954C85.1799 109.741 82.2908 110.789 79.2705 110.789C70.0972 110.789 59.6949 101.124 59.6949 101.124C59.6949 101.124 80.4162 126.369 64.1503 140.017C60.8613 142.777 57.4348 144.024 54.1146 144.024Z" fill="#906CBD"/>
<path d="M51.6743 120.813C51.1348 120.813 50.5996 120.738 50.0705 120.591C43.7591 101.725 34.2233 70.2309 29.8157 40.5174C34.6982 41.7734 60.5331 48.9326 64.9448 60.9367C67.0882 66.7669 63.466 68.402 58.7335 68.402C52.7012 68.402 44.861 65.7462 44.861 65.7462C44.861 65.7462 75.3348 88.6338 69.6233 95.5221C68.7068 96.6261 67.4194 97.0906 65.903 97.0906C57.9649 97.0906 43.7529 84.3845 43.7529 84.3845C43.7529 84.3845 66.3342 108.803 56.9671 118.256C55.23 120.007 53.4365 120.813 51.6743 120.813ZM47.8271 119.53C42.2885 115.804 37.8122 104.335 37.5956 90.2439C40.4159 99.8297 43.7862 109.676 47.8271 119.53ZM24.0689 101.473C23.2648 101.475 22.4837 101.209 21.7443 100.605C16.5514 96.3783 26.9288 72.5992 30.9718 63.8945C32.5715 71.4702 34.5003 79.4292 36.8332 87.6069C34.7253 91.577 28.9763 101.473 24.0689 101.473ZM13.7228 70.5121C11.7815 70.5121 10.213 69.7538 9.36945 67.8187C6.18877 60.518 21.4319 46.7038 27.0267 41.963C27.9661 48.2452 29.143 55.0315 30.6157 62.176C27.008 64.9172 18.9969 70.5121 13.7228 70.5121Z" fill="#785CB4"/>
<path d="M56.1731 137.884C53.1153 131.81 50.3408 125.669 47.8267 119.531C43.7857 109.676 40.4155 99.8302 37.5951 90.2444C37.3369 89.3654 37.0806 88.4843 36.8327 87.6073C34.4998 79.4296 32.5711 71.4707 30.9714 63.8949C30.8506 63.3221 30.7318 62.7451 30.6152 62.1765C29.1425 55.0319 27.9657 48.2456 27.0262 41.9634C26.4264 37.9496 25.9222 34.1398 25.4973 30.5738C23.2914 11.9896 23.2852 0.022995 23.2852 0.022995L27.9906 0.000106812C27.0387 9.07765 27.3449 19.3612 28.4843 30.1135C28.8468 33.5441 29.2945 37.0143 29.8153 40.5179C34.2228 70.2313 43.7586 101.726 50.07 120.591C53.6361 131.254 56.1731 137.884 56.1731 137.884Z" fill="#653FA2"/>
</g>
</svg>
