<svg width="50" height="50" viewBox="0 0 50 50" fill="none" xmlns="http://www.w3.org/2000/svg">
<circle cx="25" cy="25" r="25" fill="white"/>
<g clip-path="url(#clip0_447_5106)">
<path fill-rule="evenodd" clip-rule="evenodd" d="M39.7 18.9587C39.7 18.9587 39.4066 16.8767 38.5075 15.9601C37.3666 14.7563 36.0878 14.7507 35.5019 14.6809C31.3037 14.375 25.0066 14.375 25.0066 14.375H24.9934C24.9934 14.375 18.6962 14.375 14.4981 14.6809C13.9112 14.7507 12.6334 14.7563 11.4916 15.9601C10.5925 16.877 10.3 18.9587 10.3 18.9587C10.3 18.9587 10 21.4041 10 23.8484V26.1409C10 28.5861 10.3 31.0306 10.3 31.0306C10.3 31.0306 10.5925 33.1126 11.4916 34.0292C12.6334 35.233 14.1325 35.1952 14.8 35.3209C17.2 35.5531 25 35.6248 25 35.6248C25 35.6248 31.3037 35.6155 35.5019 35.3096C36.0878 35.2388 37.3666 35.2332 38.5075 34.0295C39.4066 33.1126 39.7 31.0309 39.7 31.0309C39.7 31.0309 40 28.5863 40 26.1409V23.8484C40 21.4041 39.7 18.9587 39.7 18.9587ZM21.9025 28.9187L21.9016 20.4298L30.0072 24.6889L21.9025 28.9187Z" fill="#3D1551"/>
</g>
<defs>
<clipPath id="clip0_447_5106">
<rect width="30" height="30" fill="white" transform="translate(10 10)"/>
</clipPath>
</defs>
</svg>
