<svg width="20" height="20" viewBox="0 0 20 20" fill="none" xmlns="http://www.w3.org/2000/svg">
<path d="M3.33203 7.5H4.9987V2.5H6.66536L9.51536 7.5H13.332V2.5H14.9987V7.5H16.6654V9.16667H14.9987V10.8333H16.6654V12.5H14.9987V17.5H13.332L10.4737 12.5H6.66536V17.5H4.9987V12.5H3.33203V10.8333H4.9987V9.16667H3.33203V7.5ZM6.66536 7.5H7.60703L6.66536 5.85833V7.5ZM6.66536 9.16667V10.8333H9.51536L8.56536 9.16667H6.66536ZM13.332 14.1667V12.5H12.3737L13.332 14.1667ZM10.4654 9.16667L11.4237 10.8333H13.332V9.16667H10.4654Z" fill="#060208"/>
</svg>
