<svg width="24" height="24" viewBox="0 0 24 24" fill="none" xmlns="http://www.w3.org/2000/svg">
<path d="M7.73537 19.6031L14.6519 12.5756C14.8036 12.4223 14.8886 12.2153 14.8886 11.9996C14.8886 11.7839 14.8036 11.5769 14.6519 11.4236L7.73687 4.39459C7.58597 4.23993 7.5015 4.03242 7.5015 3.81634C7.5015 3.60026 7.58597 3.39274 7.73687 3.23809C7.81094 3.16211 7.89946 3.10174 7.99722 3.06051C8.09499 3.01929 8.20002 2.99805 8.30612 2.99805C8.41222 2.99805 8.51725 3.01929 8.61502 3.06051C8.71278 3.10174 8.8013 3.16211 8.87537 3.23809L15.7904 10.2641C16.2448 10.7269 16.4993 11.3495 16.4993 11.9981C16.4993 12.6467 16.2448 13.2693 15.7904 13.7321L8.87537 20.7581C8.80128 20.8343 8.71266 20.8949 8.61476 20.9362C8.51686 20.9776 8.41165 20.9989 8.30537 20.9989C8.19909 20.9989 8.09388 20.9776 7.99598 20.9362C7.89808 20.8949 7.80946 20.8343 7.73537 20.7581C7.58447 20.6034 7.5 20.3959 7.5 20.1798C7.5 19.9638 7.58447 19.7562 7.73537 19.6016" fill="#3D155F"/>
</svg>
