<svg width="162" height="174" viewBox="0 0 162 174" fill="none" xmlns="http://www.w3.org/2000/svg">
<path opacity="0.15" d="M17.452 12.0336C35.0495 -6.83746 61.4064 0.00098739 72.0988 10.5974C72.8339 11.3262 73.5138 12.0654 74.1422 12.8148C65.2623 23.0997 62.4075 34.8376 63.8506 45.9157C65.3294 57.3055 71.2922 67.9806 79.7243 75.8454C87.6368 83.2255 97.7576 88.1475 108.429 88.7936C118.141 89.3857 128.269 86.4 137.467 78.634C143.074 81.5142 148.442 85.8027 153.17 92.6784C164.853 109.667 165.893 136.487 149.047 154.553C140.815 163.38 128.32 170.117 110.702 172.603C100.471 174.047 89.9727 173.532 79.7145 171.246L5.51913 102.058C1.59359 89.5325 -0.193829 75.6428 0.787465 60.6197C2.35669 36.5928 8.86002 21.2474 17.452 12.0336ZM75.7833 14.9474C78.4877 18.7922 80.0461 22.8629 81.122 27.0308C77.1279 32.9835 75.8717 39.359 76.6759 45.4155C77.6651 52.9158 81.7381 59.8834 87.3724 65.1375C92.9208 70.3098 100.009 73.8548 107.29 74.5896C111.421 75.0102 115.614 74.5024 119.573 72.8763C124.619 73.9662 129.801 75.1952 134.84 77.3904C126.289 84.2669 117.131 86.809 108.359 86.2843C98.3844 85.6826 88.858 81.0713 81.366 74.0849C73.3827 66.6421 67.745 56.5254 66.359 45.8142C65.0342 35.5321 67.5717 24.6877 75.7833 14.9474ZM81.9573 30.704C84.2013 41.8166 84.4439 53.3767 94.8455 63.1314C100.225 68.1761 107.055 70.1326 114.405 71.7636C112.071 72.2331 109.694 72.3232 107.324 72.0884C100.712 71.4275 94.1495 68.1692 89.0141 63.377C83.7933 58.5103 80.0739 52.0942 79.1839 45.3086C78.5629 40.5357 79.3051 35.5559 81.9573 30.704Z" fill="#DFB2EA"/>
</svg>
