<svg width="146" height="172" viewBox="0 0 146 172" fill="none" xmlns="http://www.w3.org/2000/svg">
<path opacity="0.3" d="M52.2253 171.983C21.76 171.98 0.378667 142.818 0 105.714C2.79733 105.063 5.47201 103.295 8.07334 100.735C10.8827 97.9602 13.6267 94.2242 16.3013 89.7376C21.6453 80.7682 26.7107 68.7936 31.1133 55.6042C35.1547 43.4869 38.6347 30.3562 41.2173 17.6149C56.6187 5.15625 73.5413 0.000244141 89.192 0.000244141C99.528 0.000244141 109.315 2.2509 117.739 6.12956C114.213 6.70424 111.165 7.78693 108.728 9.51892C107.717 10.2429 106.867 11.2629 106.1 12.5136C105.336 13.7682 104.656 15.2629 104.037 16.9816C102.803 20.4176 101.809 24.7509 101.02 29.7722C99.4427 39.8096 98.6893 52.5936 98.688 66.1563C98.692 80.7723 99.564 96.2696 101.251 110.168C97.0533 130.166 101.437 165.018 59.8333 171.392C57.24 171.79 54.7053 171.983 52.2253 171.983ZM87.0467 150.384C84.7253 150.384 82.892 153.451 85.7894 155.267C86.192 155.52 86.6254 155.631 87.0533 155.631C89.184 155.631 91.1893 152.867 88.7973 151.014C88.2267 150.572 87.6213 150.384 87.0467 150.384ZM103.219 103.706C101.993 91.5842 101.356 78.5376 101.357 66.1563C101.353 48.4949 102.661 32.1509 105.332 21.8842C106.216 18.4682 107.259 15.7322 108.377 13.9042C109.015 12.8589 109.672 12.1216 110.279 11.6909C113.009 9.72693 117.067 8.62158 122.099 8.34959C130.875 13.2722 137.805 20.0629 141.796 27.8802C139.565 27.3456 137.457 26.8856 135.499 26.5096C131.669 25.7762 128.423 25.3616 125.909 25.3589C124.096 25.3736 122.668 25.5362 121.499 26.1922C120.648 26.6949 120 27.4616 119.429 28.3962C118.86 29.3349 118.369 30.4669 117.921 31.7816C117.028 34.4122 116.312 37.7869 115.739 41.7376C114.593 49.6336 114.032 59.8163 114.032 70.5549C114.033 76.9616 114.233 83.5576 114.632 89.9762C109.768 94.1216 105.583 98.4349 103.248 103.64C103.239 103.662 103.228 103.684 103.219 103.706ZM0.00934245 102.99C0.358676 82.9789 6.77601 60.8469 21.0773 39.8336C26.3267 32.1202 32.0067 25.6816 37.952 20.3883C37.5053 22.4789 37.0347 24.5776 36.5413 26.6776C32.2733 44.8949 26.3494 63.2029 19.788 77.3682C15.4227 86.8109 10.7467 94.4136 6.22533 98.8616C4.06266 100.999 1.95868 102.384 0.00934245 102.99ZM117.18 87.8602C116.861 82.1162 116.7 76.2563 116.7 70.5549C116.696 56.5936 117.675 43.5536 119.584 35.6722C120.213 33.0536 120.959 31.0096 121.711 29.7802C122.135 29.0736 122.555 28.6589 122.844 28.4976C123.187 28.2722 124.256 28.0269 125.776 28.0269C125.82 28.0269 125.864 28.0269 125.909 28.0282C125.916 28.0282 125.923 28.0282 125.929 28.0282C128.665 28.0282 132.767 28.6176 137.671 29.6749C139.416 30.0509 141.265 30.4856 143.199 30.9722C144.121 33.2949 144.789 35.6896 145.176 38.1429C145.576 40.6762 145.779 43.0709 145.807 45.3389C144.869 45.2642 143.968 45.2256 143.107 45.2243C141.356 45.2256 139.767 45.3843 138.367 45.7576C136.969 46.1336 135.739 46.7309 134.801 47.6656C134.349 48.1216 134.016 48.6696 133.711 49.3069C133.407 49.9456 133.14 50.6802 132.892 51.5122C132.399 53.1749 131.988 55.2269 131.649 57.5802C130.975 62.2816 130.6 68.1789 130.599 74.3203C130.599 75.1549 130.607 75.9949 130.62 76.8362C126.287 80.7909 121.556 84.3082 117.18 87.8602ZM133.268 74.3069C133.265 66.4002 133.913 58.8763 134.976 54.1229C135.327 52.5429 135.729 51.2709 136.12 50.4536C136.339 49.9869 136.56 49.6763 136.688 49.5523C137.181 49.0563 137.965 48.6269 139.057 48.3362C140.141 48.0442 141.513 47.8936 143.092 47.8936C143.096 47.8936 143.101 47.8936 143.107 47.8936C143.116 47.8936 143.127 47.8936 143.137 47.8936C143.959 47.8936 144.835 47.9336 145.756 48.0109C145.179 59.4842 139.951 67.5896 133.268 74.3069Z" fill="#FAEEDF"/>
</svg>
