<svg width="152" height="170" viewBox="0 0 152 170" fill="none" xmlns="http://www.w3.org/2000/svg">
<path opacity="0.1" d="M105.216 1.15627C135.565 3.81416 154.323 34.7294 151.466 71.7252C148.623 72.1296 145.804 73.6577 142.99 75.9813C139.949 78.5005 136.89 81.9831 133.835 86.2196C127.729 94.6891 121.64 106.177 116.104 118.932C111.022 130.651 106.411 143.429 102.728 155.896C86.2991 166.965 68.9914 170.627 53.4003 169.263C43.1037 168.362 33.5504 165.267 25.4965 160.669C29.0585 160.403 32.1893 159.59 34.7683 158.078C35.8382 157.444 36.7745 156.502 37.6473 155.323C38.5177 154.14 39.3254 152.71 40.0915 151.052C41.6209 147.737 42.9881 143.506 44.2121 138.573C46.6582 128.711 48.5229 116.042 49.7063 102.531C50.9762 87.97 51.4582 72.4557 50.9893 58.4629C56.9135 38.9075 55.5838 3.80601 97.5851 1.08163C100.203 0.911834 102.745 0.940125 105.216 1.15627ZM68.6443 19.6379C70.9568 19.8402 73.0504 16.945 70.3224 14.8834C69.9433 14.5959 69.5213 14.4479 69.0949 14.4106C66.9724 14.2249 64.7338 16.8036 66.9552 18.8584C67.4852 19.3477 68.0718 19.5878 68.6443 19.6379ZM48.4655 64.7294C48.6297 76.9114 48.1276 89.964 47.0471 102.298C45.5118 119.893 42.7844 136.06 39.2291 146.055C38.0507 149.381 36.7735 152.016 35.4998 153.739C34.7738 154.725 34.0547 155.402 33.4128 155.779C30.5213 157.497 26.3831 158.245 21.3466 158.077C13.033 152.408 6.72055 145.039 3.4264 136.904C5.60198 137.631 7.66186 138.273 9.5803 138.818C13.3311 139.883 16.5293 140.579 19.0329 140.8C20.8406 140.944 22.2773 140.906 23.4994 140.355C24.3906 139.928 25.103 139.221 25.7529 138.339C26.4019 137.454 26.9893 136.369 27.5502 135.098C28.6694 132.556 29.6768 129.256 30.5923 125.37C32.4215 117.604 33.8682 107.509 34.8041 96.8115C35.3611 90.4291 35.7368 83.8408 35.8991 77.4118C41.1058 73.7061 45.6512 69.774 48.4306 64.792C48.4418 64.7715 48.4544 64.7499 48.4655 64.7294ZM151.22 74.438C149.128 94.3421 140.806 115.831 124.727 135.517C118.826 142.744 112.606 148.663 106.222 153.418C106.849 151.374 107.501 149.325 108.176 147.276C114.015 129.5 121.512 111.778 129.283 98.238C134.455 89.2117 139.776 82.0456 144.668 78.0085C147.008 76.0678 149.225 74.8711 151.22 74.438ZM33.1763 79.2977C32.9931 85.0476 32.6431 90.8993 32.1462 96.579C30.9334 110.488 28.8219 123.393 26.233 131.078C25.3778 133.631 24.4572 135.603 23.6009 136.762C23.1169 137.429 22.6624 137.805 22.3601 137.941C21.9991 138.135 20.9124 138.287 19.3982 138.154C19.3544 138.15 19.3105 138.146 19.2655 138.141C19.2589 138.141 19.2522 138.14 19.2456 138.139C16.52 137.901 12.4856 136.956 7.69243 135.476C5.98651 134.949 4.18212 134.355 2.29855 133.702C1.58183 131.307 1.12507 128.863 0.953703 126.386C0.77601 123.827 0.782823 121.424 0.952599 119.162C1.87987 119.318 2.7744 119.435 3.63234 119.512C5.37646 119.663 6.97358 119.643 8.4008 119.394C9.82557 119.141 11.1036 118.653 12.1188 117.804C12.6089 117.389 12.9887 116.872 13.3484 116.264C13.7069 115.654 14.0366 114.945 14.3562 114.138C14.9926 112.525 15.5805 110.516 16.123 108.201C17.2048 103.577 18.0921 97.7345 18.6286 91.6166C18.7014 90.7851 18.7666 89.9476 18.8266 89.1083C23.4882 85.5464 28.5074 82.4548 33.1763 79.2977ZM15.9683 91.3973C15.2818 99.2741 13.9805 106.713 12.5076 111.356C12.0206 112.899 11.5086 114.131 11.0482 114.911C10.7897 115.357 10.5421 115.647 10.4038 115.76C9.86909 116.211 9.05065 116.57 7.93748 116.765C6.83215 116.961 5.45226 116.991 3.87961 116.854C3.87563 116.854 3.87029 116.853 3.86499 116.853C3.85569 116.852 3.84506 116.851 3.83444 116.85C3.01623 116.778 2.14703 116.662 1.23595 116.505C2.81105 105.125 8.72561 97.5066 15.9683 91.3973Z" fill="#E9A2C4"/>
</svg>
