<svg width="148" height="132" viewBox="0 0 148 132" fill="none" xmlns="http://www.w3.org/2000/svg">
<path opacity="0.2" d="M139.362 17.9197C153.973 33.5872 146.782 55.0204 137.387 63.2624C136.741 63.829 136.089 64.3493 135.432 64.8264C127.428 56.8762 117.872 53.832 108.613 54.3857C99.0945 54.9507 89.9078 59.271 82.9057 65.7992C76.3351 71.925 71.6725 80.0222 70.5193 88.8232C69.4665 96.8325 71.3527 105.393 77.252 113.461C74.5418 117.939 70.6791 122.136 64.7107 125.653C49.9638 134.346 27.6904 133.654 13.704 118.655C6.86973 111.326 2.01392 100.587 0.974853 85.8514C0.371664 77.2949 1.4061 68.6296 3.89339 60.2659L65.4935 2.82288C76.0947 0.297073 87.702 -0.378879 100.088 1.3039C119.896 3.99509 132.229 10.27 139.362 17.9197ZM133.571 66.062C130.23 68.0792 126.768 69.1342 123.254 69.7839C118.555 66.1311 113.348 64.7215 108.285 65.0367C102.016 65.4217 96.0091 68.3914 91.3313 72.7536C86.7261 77.0494 83.3796 82.7143 82.3494 88.7027C81.7618 92.0996 81.9395 95.6014 83.057 98.9748C81.862 103.09 80.5441 107.311 78.4341 111.358C73.2341 103.877 71.6591 96.1452 72.6016 88.9104C73.6777 80.6841 78.0485 73.0612 84.2687 67.2608C90.8954 61.0799 99.6007 56.9966 108.552 56.469C117.145 55.9673 125.979 58.6969 133.571 66.062ZM120.163 70.2629C110.83 71.4779 101.241 71.0093 92.56 79.0592C88.0703 83.2223 86.0544 88.7656 84.2778 94.7588C84.0242 92.7987 84.0872 90.8244 84.4189 88.8752C85.3493 83.4371 88.4279 78.1909 92.6943 74.2153C97.0274 70.1732 102.557 67.4643 108.228 67.1201C112.217 66.8822 116.299 67.7853 120.163 70.2629Z" fill="#F5E2FA"/>
</svg>
