<svg width="30" height="30" viewBox="0 0 30 30" fill="none" xmlns="http://www.w3.org/2000/svg">
<path fill-rule="evenodd" clip-rule="evenodd" d="M22.6127 3.18597C21.9227 2.79847 21.1877 2.76097 20.4115 2.85722C19.674 2.94972 18.7752 3.18222 17.6965 3.46347L15.1727 4.11847C14.094 4.39972 13.1965 4.63222 12.5102 4.91097C11.7865 5.20347 11.1615 5.59597 10.7565 6.27722C10.349 6.96222 10.309 7.69472 10.4102 8.45972C10.5065 9.18097 10.7477 10.056 11.0352 11.0985L11.714 13.5535C12.0015 14.5972 12.244 15.471 12.5327 16.141C12.839 16.8535 13.2477 17.4597 13.9427 17.8497C14.6327 18.236 15.3677 18.2747 16.1452 18.1772C16.8827 18.086 17.7815 17.8522 18.8602 17.571L21.384 16.916C22.4627 16.636 23.3602 16.4022 24.0465 16.1235C24.7702 15.831 25.3952 15.4385 25.8002 14.7572C26.2077 14.0722 26.2477 13.3397 26.1465 12.576C26.0502 11.8547 25.809 10.9785 25.5215 9.93597L24.8427 7.48097C24.5552 6.43847 24.3127 5.56347 24.024 4.89347C23.7177 4.18097 23.3065 3.57472 22.6127 3.18597ZM18.1077 5.29347C19.264 4.99347 20.0427 4.79347 20.6452 4.71847C21.2215 4.64597 21.4977 4.70972 21.699 4.82222C21.8952 4.93222 22.084 5.12347 22.3027 5.63472C22.534 6.17222 22.744 6.92097 23.054 8.04347L23.6965 10.3722C24.0077 11.4947 24.2127 12.2447 24.289 12.8222C24.3615 13.371 24.2965 13.6197 24.189 13.7985C24.0802 13.9822 23.8827 14.1685 23.3452 14.386C22.7852 14.6122 22.0077 14.8172 20.8515 15.1172L18.4515 15.741C17.2952 16.041 16.5165 16.241 15.914 16.316C15.3365 16.3897 15.0615 16.326 14.8602 16.2135C14.664 16.1035 14.4752 15.911 14.2565 15.401C14.0252 14.8635 13.8152 14.1135 13.5052 12.991L12.8627 10.6635C12.5515 9.53847 12.3465 8.78972 12.2702 8.21347C12.1977 7.66347 12.2627 7.41597 12.3702 7.23597C12.479 7.05222 12.6765 6.86597 13.214 6.64847C13.774 6.42222 14.5515 6.21847 15.7077 5.91722L18.1077 5.29347Z" fill="#3D1551"/>
<path fill-rule="evenodd" clip-rule="evenodd" d="M4.00058 5.90587C3.76376 5.84781 3.51364 5.8843 3.30328 6.0076C3.09292 6.1309 2.93887 6.33131 2.87382 6.5663C2.80877 6.80129 2.83784 7.05238 2.95485 7.2663C3.07186 7.48022 3.26761 7.64014 3.50058 7.71212L5.62933 8.30337C6.16183 8.45087 6.55808 8.85337 6.69308 9.34212L9.13308 18.1709C9.03866 18.1896 8.94487 18.2112 8.85183 18.2359C6.38058 18.8771 4.87058 21.3634 5.54808 23.8196C6.22308 26.2634 8.79058 27.6721 11.2518 27.0321C13.4068 26.4734 14.8306 24.5121 14.7106 22.3921L25.2356 19.6571C25.3548 19.6262 25.4667 19.5721 25.5649 19.4979C25.6632 19.4237 25.7459 19.3309 25.8083 19.2247C25.8707 19.1186 25.9115 19.0012 25.9285 18.8792C25.9456 18.7573 25.9384 18.6332 25.9075 18.514C25.8765 18.3948 25.8224 18.2829 25.7482 18.1846C25.674 18.0864 25.5812 18.0037 25.475 17.9413C25.3689 17.8789 25.2515 17.8381 25.1295 17.821C25.0076 17.804 24.8835 17.8112 24.7643 17.8421L14.2168 20.5834C13.9013 19.9804 13.4572 19.454 12.9159 19.0415C12.3746 18.6289 11.7494 18.3403 11.0843 18.1959L8.50058 8.84212C8.34198 8.27944 8.0403 7.76744 7.62496 7.35603C7.20961 6.94462 6.69475 6.64785 6.13058 6.49462L4.00058 5.90587ZM9.32433 20.0496C10.8393 19.6571 12.3593 20.5359 12.7493 21.9484C13.1368 23.3484 12.2868 24.8271 10.7818 25.2184C9.26683 25.6121 7.74683 24.7321 7.35683 23.3196C6.96933 21.9196 7.81933 20.4409 9.32433 20.0496Z" fill="#3D1551"/>
</svg>
