<svg width="27" height="25" viewBox="0 0 27 25" fill="none" xmlns="http://www.w3.org/2000/svg">
<path d="M4.84577 13.2887C4.84435 13.281 4.84306 13.2732 4.8419 13.2655L3.21508 3.50454C3.05435 2.54016 2.21997 1.83333 1.2423 1.83333H0.834635C0.466446 1.83333 0.167969 1.53486 0.167969 1.16667C0.167969 0.798477 0.466446 0.5 0.834635 0.5H1.2423C2.83139 0.5 4.19334 1.62039 4.50831 3.16667H26.168C26.6109 3.16667 26.9307 3.5906 26.809 4.01648L24.1423 13.3498C24.0605 13.636 23.799 13.8333 23.5013 13.8333H6.28828L6.45419 14.8288C6.61492 15.7932 7.4493 16.5 8.42697 16.5H23.5013C23.8695 16.5 24.168 16.7985 24.168 17.1667C24.168 17.5349 23.8695 17.8333 23.5013 17.8333H8.42697C6.79751 17.8333 5.40688 16.6553 5.139 15.048L4.84577 13.2887ZM4.73272 4.5L6.06605 12.5H22.9984L25.2842 4.5H4.73272ZM8.16797 24.5C6.69521 24.5 5.5013 23.3061 5.5013 21.8333C5.5013 20.3606 6.69521 19.1667 8.16797 19.1667C9.64073 19.1667 10.8346 20.3606 10.8346 21.8333C10.8346 23.3061 9.64073 24.5 8.16797 24.5ZM8.16797 23.1667C8.90435 23.1667 9.5013 22.5697 9.5013 21.8333C9.5013 21.097 8.90435 20.5 8.16797 20.5C7.43159 20.5 6.83464 21.097 6.83464 21.8333C6.83464 22.5697 7.43159 23.1667 8.16797 23.1667ZM20.168 24.5C18.6952 24.5 17.5013 23.3061 17.5013 21.8333C17.5013 20.3606 18.6952 19.1667 20.168 19.1667C21.6407 19.1667 22.8346 20.3606 22.8346 21.8333C22.8346 23.3061 21.6407 24.5 20.168 24.5ZM20.168 23.1667C20.9043 23.1667 21.5013 22.5697 21.5013 21.8333C21.5013 21.097 20.9043 20.5 20.168 20.5C19.4316 20.5 18.8346 21.097 18.8346 21.8333C18.8346 22.5697 19.4316 23.1667 20.168 23.1667Z" fill="#3D1551"/>
</svg>
