<svg width="33" height="34" viewBox="0 0 33 34" fill="none" xmlns="http://www.w3.org/2000/svg">
<path d="M6.11965 0L6.5884 2.34375H26.4322L26.9009 0H6.11965ZM6.86965 3.75L7.0884 4.84375H25.9322L26.1509 3.75H6.86965ZM5.26028 6.25C3.85793 6.44531 1.94387 8.13281 1.47121 9.1875C1.29621 9.61719 1.29465 9.91406 1.45481 10.2031C1.797 10.8047 2.00481 10.8516 2.44543 10.8125C2.88528 10.7812 3.5595 10.4844 4.29075 10.0859C5.01809 9.67969 5.81497 9.1875 6.63528 8.84375C7.4634 8.5 8.38528 8.28125 9.2759 8.64844C9.95559 8.92188 10.4087 9.46875 10.729 10.0312C11.3462 11.0312 11.4868 12.1953 12.1431 13.125C12.3697 13.4453 12.5415 13.5703 12.8306 13.6016V13.5938C13.2212 13.6406 13.4868 13.5 13.8618 13.1328C14.8462 12.0312 15.4165 10.6484 16.3462 9.63281C16.8775 9.07031 17.5884 8.59375 18.4634 8.59375C19.1743 8.59375 19.7603 8.96875 20.1743 9.40625C20.9634 10.1875 21.2993 11.2188 22.0572 11.9922C22.3228 12.2656 22.4947 12.3516 22.7368 12.3438C23.065 12.2656 23.2603 11.8281 23.4243 11.5625C23.7525 11 24.1197 10.1641 25.0493 9.875C26.6822 9.50781 28.0415 10.4609 29.3228 11.1719C29.9322 11.5078 30.4947 11.75 30.854 11.7891C31.2056 11.8359 31.3384 11.8203 31.6118 11.4062C31.8775 11.0078 31.8931 10.5859 31.6978 10.0234C30.9634 8.33594 29.3228 6.90625 27.7603 6.25H5.26028ZM8.26028 9.86719C7.26028 9.96094 6.36965 10.5234 5.57278 10.9688C4.47121 16.1172 4.9634 22.7656 9.69778 25.3359C8.01028 20.7578 8.66653 16.4766 10.2525 12.4609C9.86184 11.5391 9.48684 10.3047 8.74465 9.94531C8.60403 9.89062 8.43997 9.85938 8.26028 9.86719ZM0.709496 11.5156C0.181371 13.5156 -0.0514414 15.7266 0.0149649 17.9141C0.0954336 20.5703 0.614184 23.1875 1.62668 25.3594C2.51653 27.2578 3.81106 28.8281 5.54934 29.6562L4.55715 31.6328V31.7969C4.61965 32.6094 5.51809 32.7891 6.09622 32.8984C6.76028 33.0234 7.65871 33.125 8.72122 33.2031C10.8618 33.3594 13.6822 33.4375 16.5103 33.4375C19.3384 33.4375 22.1587 33.3594 24.2993 33.2031C25.3618 33.125 26.2603 33.0234 26.9243 32.8984C27.5806 32.7812 28.4478 32.5234 28.4634 31.7969C28.2134 31.0547 27.8228 30.3438 27.479 29.6562C29.2056 28.8281 30.4947 27.2578 31.3775 25.3516C32.3853 23.1875 32.9009 20.5703 32.979 17.9141C33.0415 16.0859 32.8853 14.2344 32.5259 12.5078C32.1587 12.8906 31.69 13.1094 31.2212 13.1797C31.5025 14.6797 31.6275 16.2813 31.5806 17.8672C31.5025 20.3672 31.0025 22.8281 30.104 24.7656C29.2212 26.6641 27.9712 28.0234 26.3775 28.5938H6.64309C5.04153 28.0234 3.78918 26.6641 2.9009 24.7578C1.99543 22.8281 1.49621 20.3672 1.42043 17.8672C1.36184 15.9219 1.55871 13.9609 1.99075 12.1875C1.53293 12.1094 1.08293 11.8828 0.709496 11.5156ZM6.94778 30H26.0728L26.815 31.4766C25.9322 31.6562 24.94 31.7422 24.19 31.7969C22.1118 31.9531 19.3072 32.0312 16.5103 32.0312C13.7134 32.0312 10.9087 31.9531 8.83059 31.7969C7.64309 31.7344 7.00247 31.6953 6.20559 31.4766L6.94778 30Z" fill="white"/>
</svg>
