<svg width="31" height="30" viewBox="0 0 31 30" fill="none" xmlns="http://www.w3.org/2000/svg">
<path d="M11.3617 18.5579L15.5 16.0479L19.6383 18.5579L18.5383 13.8495L22.1983 10.7079L17.3883 10.2829L15.5 5.8662L13.6117 10.2829L8.80167 10.7079L12.4617 13.8495L11.3617 18.5579ZM0.5 29.2312V3.4612C0.5 2.69453 0.757222 2.05453 1.27167 1.5412C1.785 1.02675 2.425 0.769531 3.19167 0.769531H27.8083C28.575 0.769531 29.215 1.02675 29.7283 1.5412C30.2428 2.05453 30.5 2.69453 30.5 3.4612V21.4112C30.5 22.1779 30.2433 22.8184 29.73 23.3329C29.2156 23.8462 28.575 24.1029 27.8083 24.1029H5.62833L0.5 29.2312ZM4.91667 22.4362H27.8083C28.0639 22.4362 28.2989 22.3295 28.5133 22.1162C28.7267 21.9018 28.8333 21.6668 28.8333 21.4112V3.4612C28.8333 3.20564 28.7267 2.97064 28.5133 2.7562C28.2989 2.54286 28.0639 2.4362 27.8083 2.4362H3.19167C2.93611 2.4362 2.70111 2.54286 2.48667 2.7562C2.27333 2.97064 2.16667 3.20564 2.16667 3.4612V25.1779L4.91667 22.4362Z" fill="white"/>
</svg>
