<svg width="30" height="28" viewBox="0 0 30 28" fill="none" xmlns="http://www.w3.org/2000/svg">
<path d="M27.2397 2.50406C25.3131 0.657189 22.3037 -0.261561 19.5569 0.167346C17.5787 0.469689 15.9779 1.46813 15.017 2.97281C14.0795 1.44235 12.5279 0.432189 10.5803 0.108752C7.8592 -0.338905 4.72091 0.622033 2.7592 2.50172C1.89271 3.33184 1.20199 4.32771 0.728087 5.43012C0.254187 6.53253 0.00678956 7.71897 0.000602209 8.91891C-0.0135753 10.1636 0.222711 11.3985 0.695407 12.55C1.1681 13.7015 1.86756 14.7463 2.75216 15.622L13.8287 26.7056C13.9812 26.8594 14.1627 26.9815 14.3626 27.0647C14.5626 27.148 14.777 27.1909 14.9936 27.1909C15.2102 27.1909 15.4246 27.148 15.6245 27.0647C15.8244 26.9815 16.0059 26.8594 16.1584 26.7056L27.242 15.6197C28.1276 14.7448 28.8282 13.7007 29.3021 12.5496C29.776 11.3984 30.0135 10.1637 30.0006 8.91891C29.9938 7.7192 29.7459 6.5331 29.2716 5.4311C28.7973 4.32911 28.1063 3.33371 27.2397 2.50406ZM26.2506 14.6259L15.1717 25.7119C15.1498 25.7353 15.1233 25.754 15.0938 25.7667C15.0644 25.7795 15.0327 25.7861 15.0006 25.7861C14.9685 25.7861 14.9368 25.7795 14.9074 25.7667C14.8779 25.754 14.8514 25.7353 14.8295 25.7119L3.7506 14.6259C2.99827 13.8826 2.4031 12.9955 2.00047 12.0175C1.59783 11.0395 1.39596 9.99055 1.40685 8.93297C1.41219 7.92007 1.62118 6.91858 2.02141 5.98808C2.42163 5.05758 3.00491 4.21708 3.73654 3.51656C5.11701 2.18766 7.2006 1.40719 9.19513 1.40719C9.58298 1.40685 9.97021 1.43821 10.3529 1.50094C11.5248 1.69313 13.0881 2.27906 13.967 3.97594C14.0658 4.16549 14.2141 4.3248 14.396 4.43702C14.578 4.54924 14.7869 4.6102 15.0006 4.61344C15.209 4.61395 15.4136 4.558 15.5927 4.45152C15.7718 4.34505 15.9187 4.19204 16.0178 4.00875C16.9295 2.32125 18.5537 1.74469 19.7537 1.55719C22.0436 1.20094 24.6522 1.98844 26.2459 3.51891C26.9807 4.21755 27.5673 5.05696 27.9707 5.98711C28.3742 6.91726 28.5863 7.91912 28.5944 8.93297C28.6052 9.99055 28.4034 11.0395 28.0007 12.0175C27.5981 12.9955 27.0029 13.8826 26.2506 14.6259Z" fill="white"/>
</svg>
