<svg width="35" height="30" viewBox="0 0 35 30" fill="none" xmlns="http://www.w3.org/2000/svg">
<path d="M29.9987 5H24.1654V3.33333C24.164 2.44968 23.8124 1.60261 23.1876 0.977771C22.5628 0.352936 21.7157 0.0013225 20.832 0H14.1654C13.2817 0.0013225 12.4346 0.352936 11.8098 0.977771C11.185 1.60261 10.8334 2.44968 10.832 3.33333V5H4.9987C3.8939 5.00088 2.8346 5.44015 2.05339 6.22136C1.27218 7.00257 0.832914 8.06187 0.832031 9.16667V25.8333C0.832914 26.9381 1.27218 27.9974 2.05339 28.7786C2.8346 29.5598 3.8939 29.9991 4.9987 30H29.9987C31.1035 29.9991 32.1628 29.5598 32.944 28.7786C33.7252 27.9974 34.1645 26.9381 34.1654 25.8333V9.16667C34.1645 8.06187 33.7252 7.00257 32.944 6.22136C32.1628 5.44015 31.1035 5.00088 29.9987 5ZM12.4987 3.33333C12.4987 2.89131 12.6743 2.46738 12.9869 2.15482C13.2994 1.84226 13.7233 1.66667 14.1654 1.66667H20.832C21.2741 1.66667 21.698 1.84226 22.0105 2.15482C22.3231 2.46738 22.4987 2.89131 22.4987 3.33333V5H12.4987V3.33333ZM32.4987 25.8333C32.4987 26.4964 32.2353 27.1323 31.7665 27.6011C31.2976 28.0699 30.6617 28.3333 29.9987 28.3333H4.9987C4.33566 28.3333 3.69977 28.0699 3.23093 27.6011C2.76209 27.1323 2.4987 26.4964 2.4987 25.8333V15.045L12.2354 18.2917C12.3204 18.3193 12.4093 18.3334 12.4987 18.3333H22.4987C22.5881 18.3334 22.677 18.3193 22.762 18.2917L32.4987 15.045V25.8333ZM32.4987 13.3433C32.4097 13.34 32.3207 13.3513 32.2354 13.3767L22.3637 16.6667H12.6337L2.76203 13.375C2.67666 13.3496 2.58771 13.3383 2.4987 13.3417V9.16667C2.4987 8.50362 2.76209 7.86774 3.23093 7.3989C3.69977 6.93006 4.33566 6.66667 4.9987 6.66667H29.9987C30.6617 6.66667 31.2976 6.93006 31.7665 7.3989C32.2353 7.86774 32.4987 8.50362 32.4987 9.16667V13.3433Z" fill="white"/>
</svg>
