<svg width="42" height="40" viewBox="0 0 42 40" fill="none" xmlns="http://www.w3.org/2000/svg">
<path d="M10.6157 3L11.0845 5.34375H30.9282L31.397 3H10.6157ZM11.3657 6.75L11.5845 7.84375H30.4282L30.647 6.75H11.3657ZM9.75637 9.25C8.35403 9.44531 6.43996 11.1328 5.96731 12.1875C5.79231 12.6172 5.79075 12.9141 5.9509 13.2031C6.29309 13.8047 6.5009 13.8516 6.94153 13.8125C7.38137 13.7812 8.05559 13.4844 8.78684 13.0859C9.51418 12.6797 10.3111 12.1875 11.1314 11.8438C11.9595 11.5 12.8814 11.2812 13.772 11.6484C14.4517 11.9219 14.9048 12.4688 15.2251 13.0312C15.8423 14.0312 15.9829 15.1953 16.6392 16.125C16.8657 16.4453 17.0376 16.5703 17.3267 16.6016V16.5938C17.7173 16.6406 17.9829 16.5 18.3579 16.1328C19.3423 15.0312 19.9126 13.6484 20.8423 12.6328C21.3736 12.0703 22.0845 11.5938 22.9595 11.5938C23.6704 11.5938 24.2564 11.9688 24.6704 12.4062C25.4595 13.1875 25.7954 14.2188 26.5532 14.9922C26.8189 15.2656 26.9907 15.3516 27.2329 15.3438C27.5611 15.2656 27.7564 14.8281 27.9204 14.5625C28.2486 14 28.6157 13.1641 29.5454 12.875C31.1782 12.5078 32.5376 13.4609 33.8189 14.1719C34.4282 14.5078 34.9907 14.75 35.3501 14.7891C35.7017 14.8359 35.8345 14.8203 36.1079 14.4062C36.3736 14.0078 36.3892 13.5859 36.1939 13.0234C35.4595 11.3359 33.8189 9.90625 32.2564 9.25H9.75637ZM12.7564 12.8672C11.7564 12.9609 10.8657 13.5234 10.0689 13.9688C8.96731 19.1172 9.4595 25.7656 14.1939 28.3359C12.5064 23.7578 13.1626 19.4766 14.7486 15.4609C14.3579 14.5391 13.9829 13.3047 13.2407 12.9453C13.1001 12.8906 12.9361 12.8594 12.7564 12.8672ZM5.20559 14.5156C4.67746 16.5156 4.44465 18.7266 4.51106 20.9141C4.59153 23.5703 5.11028 26.1875 6.12278 28.3594C7.01262 30.2578 8.30715 31.8281 10.0454 32.6562L9.05325 34.6328V34.7969C9.11575 35.6094 10.0142 35.7891 10.5923 35.8984C11.2564 36.0234 12.1548 36.125 13.2173 36.2031C15.3579 36.3594 18.1782 36.4375 21.0064 36.4375C23.8345 36.4375 26.6548 36.3594 28.7954 36.2031C29.8579 36.125 30.7564 36.0234 31.4204 35.8984C32.0767 35.7812 32.9439 35.5234 32.9595 34.7969C32.7095 34.0547 32.3189 33.3438 31.9751 32.6562C33.7017 31.8281 34.9907 30.2578 35.8736 28.3516C36.8814 26.1875 37.397 23.5703 37.4751 20.9141C37.5376 19.0859 37.3814 17.2344 37.022 15.5078C36.6548 15.8906 36.1861 16.1094 35.7173 16.1797C35.9986 17.6797 36.1236 19.2813 36.0767 20.8672C35.9986 23.3672 35.4986 25.8281 34.6001 27.7656C33.7173 29.6641 32.4673 31.0234 30.8736 31.5938H11.1392C9.53762 31.0234 8.28528 29.6641 7.397 27.7578C6.49153 25.8281 5.99231 23.3672 5.91653 20.8672C5.85793 18.9219 6.05481 16.9609 6.48684 15.1875C6.02903 15.1094 5.57903 14.8828 5.20559 14.5156ZM11.4439 33H30.5689L31.3111 34.4766C30.4282 34.6562 29.4361 34.7422 28.6861 34.7969C26.6079 34.9531 23.8032 35.0312 21.0064 35.0312C18.2095 35.0312 15.4048 34.9531 13.3267 34.7969C12.1392 34.7344 11.4986 34.6953 10.7017 34.4766L11.4439 33Z" fill="white"/>
</svg>
