<svg width="237" height="41" viewBox="0 0 237 41" fill="none" xmlns="http://www.w3.org/2000/svg">
<mask id="mask0_375_652" style="mask-type:luminance" maskUnits="userSpaceOnUse" x="15" y="3" width="19" height="11">
<path d="M15.8987 9.93761C18.6114 7.71319 25.1858 5.136 28.4442 6.11625C31.3827 7.00021 31.835 9.48137 28.0486 13.3027C28.0486 13.3027 34.3213 10.5651 33.4173 6.34449C32.5129 2.12363 27.7095 2.52287 23.4148 4.23406C19.1199 5.94525 15.8987 9.93761 15.8987 9.93761Z" fill="white"/>
</mask>
<g mask="url(#mask0_375_652)">
<path d="M15.8987 9.93761C18.6114 7.71319 25.1858 5.136 28.4442 6.11625C31.3827 7.00021 31.835 9.48137 28.0486 13.3027C28.0486 13.3027 34.3213 10.5651 33.4173 6.34449C32.5129 2.12363 27.7095 2.52287 23.4148 4.23406C19.1199 5.94525 15.8987 9.93761 15.8987 9.93761Z" fill="white"/>
</g>
<mask id="mask1_375_652" style="mask-type:luminance" maskUnits="userSpaceOnUse" x="0" y="0" width="35" height="41">
<path d="M0.339374 40.2988C0.236605 40.2988 0.135057 40.2519 0.0683838 40.1627C-0.0443824 40.0118 -0.0145945 39.7972 0.134955 39.6834C0.134853 39.6834 0.134778 39.6834 0.134778 39.6834C0.133175 39.6834 0.160012 39.6581 0.178785 39.6237C0.200636 39.5856 0.233146 39.5289 0.276161 39.4539C0.328029 39.3651 0.39142 39.2449 0.462774 39.096C3.87173 35.023 5.94848 18.3556 10.756 11.0771C15.7876 3.45984 24.5695 0.959934 25.483 0.717056C23.8697 0.785351 22.288 1.04774 20.7549 1.44826C22.522 0.986893 24.3531 0.707558 26.2233 0.699085C26.2446 0.699085 26.2657 0.69883 26.2871 0.69883C26.7366 0.69883 27.1889 0.719368 27.6417 0.754539C27.8788 0.770714 28.1169 0.796646 28.3544 0.823605C28.4203 0.828224 28.3951 0.829254 28.4201 0.832333L28.4592 0.840038L28.5376 0.855438L28.6943 0.886253L29.0657 0.96122C30.0333 1.16687 30.988 1.48087 31.9033 2C32.3561 2.26599 32.7964 2.58024 33.1859 2.97049C33.5756 3.35843 33.9136 3.818 34.1561 4.32584C34.4015 4.83213 34.5468 5.37976 34.6035 5.91918C34.6554 6.45937 34.6315 6.99237 34.5379 7.4961C34.357 8.50895 33.9564 9.41294 33.4746 10.2304C33.2309 10.6384 32.9679 11.0286 32.686 11.3996C32.4024 11.7691 32.1002 12.1188 31.7919 12.46C30.5431 13.8104 29.1107 14.9311 27.6033 15.8942C27.2296 16.1316 26.8272 16.3668 26.4891 16.5689L25.9648 16.8836L25.4634 17.194C24.7952 17.6128 24.1335 18.0354 23.4958 18.4616C23.4655 18.4819 23.4355 18.5022 23.4052 18.5224C21.8009 19.3491 18.3983 21.1307 16.4638 23.074C13.2303 26.3215 14.0901 32.6371 20.1935 34.0628C21.6821 34.4107 22.9715 34.6117 24.0994 34.6975C24.8265 34.9319 25.483 35.0495 26.0063 35.1026C26.3891 35.1445 26.7 35.1583 26.9114 35.161C26.9391 35.1601 26.9655 35.1599 26.9902 35.1599C27.0576 35.1599 27.1131 35.1617 27.1535 35.1625C27.2092 35.1633 27.2375 35.1638 27.2375 35.1638L27.2662 35.1643C27.4695 35.1676 27.6315 35.3366 27.6282 35.5414C27.6269 35.6307 27.5941 35.7127 27.5409 35.7758C27.5409 35.7758 27.5214 35.7992 27.4829 35.8446C27.4443 35.8906 27.3868 35.9599 27.3056 36.0459C27.1428 36.2153 26.8946 36.4715 26.5204 36.7507C26.1469 37.0293 25.6501 37.3427 25.0104 37.6143C24.8506 37.6857 24.6822 37.7453 24.5052 37.813C24.3284 37.8719 24.1422 37.9325 23.9486 37.984C23.5602 38.0981 23.1397 38.1748 22.6882 38.2377C22.2715 38.2934 21.8281 38.324 21.3636 38.324C19.8345 38.324 18.076 37.9936 16.2875 37.1471C17.0806 37.5224 17.8674 37.7944 18.6313 37.9828C17.3378 37.0205 15.4203 35.6667 13.8643 33.2644C10.9821 28.8155 11.6603 23.3972 17.8766 18.4349C21.0052 15.9375 23.3312 14.221 24.871 13.1311L25.0165 13.09C25.4245 12.9729 25.7677 12.8815 26.1319 12.7686C27.5628 12.3139 28.9647 11.6471 30.1417 10.692C30.4388 10.4574 30.7153 10.2001 30.9733 9.92822C31.2327 9.65762 31.4742 9.37186 31.683 9.06865C32.1017 8.46504 32.4169 7.79777 32.5341 7.13383C32.6537 6.47066 32.5644 5.82932 32.2604 5.33766C31.9613 4.84189 31.4462 4.48784 30.8306 4.27808C30.3373 4.11043 29.7767 4.0429 29.2092 4.0429C29.067 4.0429 28.9243 4.04727 28.7821 4.05523L28.5226 4.07782L28.3633 4.09117L28.2837 4.0981L28.244 4.10144C28.2425 4.10299 28.1911 4.10247 28.2306 4.10606C28.0461 4.12172 27.863 4.13687 27.6783 4.16075C27.3095 4.2085 26.9409 4.27397 26.5735 4.35459C25.103 4.67629 23.6701 5.23368 22.3224 5.90942C20.9749 6.59159 19.6995 7.37877 18.5186 8.24707C17.3353 9.11127 16.2333 10.0371 15.2259 11.013C14.2176 11.9878 13.2975 13.0068 12.4776 14.0641C11.6598 15.1232 10.9554 16.2282 10.3615 17.3558C9.77053 18.4847 9.28187 19.6334 8.90742 20.7869C8.71613 21.3625 8.55027 21.9381 8.40985 22.512C8.37017 22.6588 8.34448 22.7862 8.31166 22.9222L8.26435 23.1228C8.24832 23.1857 8.23332 23.2789 8.21754 23.3551L8.17099 23.5952L8.14708 23.7145L8.13513 23.7741L8.12928 23.8039C8.12877 23.8062 8.12877 23.807 8.12851 23.807C8.12826 23.807 8.12877 23.8016 8.12928 23.7959C8.12978 23.7903 8.13029 23.7846 8.13004 23.7846C8.12978 23.7846 8.12927 23.7885 8.12775 23.799C8.09392 23.9626 8.06008 24.1251 8.02676 24.2868C7.88965 24.932 7.75534 25.5639 7.62408 26.1813C7.47603 26.797 7.32264 27.3991 7.1667 27.9816C7.01942 28.5647 6.84288 29.1316 6.67855 29.6813C6.51295 30.2302 6.34226 30.7601 6.15479 31.2723C5.43998 33.3193 4.65319 35.0624 3.84833 36.4284C3.3004 37.3714 2.75557 38.1358 2.2634 38.717C2.04061 38.9802 1.82876 39.2057 1.63223 39.3931C1.31644 39.6953 1.05828 39.9073 0.859555 40.0373C0.769021 40.1006 0.678411 40.1561 0.620972 40.1897C0.563024 40.2246 0.545447 40.2272 0.543259 40.23C0.482158 40.2766 0.410499 40.2988 0.339374 40.2988ZM16.2641 37.1361C16.2628 37.1353 16.2615 37.1348 16.26 37.134C16.2613 37.1348 16.2628 37.1353 16.2641 37.1361ZM16.2524 37.1304C16.2516 37.1302 16.2506 37.1296 16.2501 37.1294C16.2508 37.1296 16.2516 37.1302 16.2524 37.1304ZM10.6527 22.4344C10.6532 22.4342 10.6591 22.4213 10.6906 22.3487C10.6591 22.4216 10.6532 22.4344 10.6527 22.4344ZM19.9503 21.0249C19.9543 21.0216 19.9584 21.0182 19.9627 21.0149C19.9587 21.0182 19.9543 21.0216 19.9503 21.0249ZM20.0335 20.9579C20.0345 20.9571 20.035 20.9566 20.036 20.9561C20.0352 20.9566 20.0342 20.9574 20.0335 20.9579Z" fill="white"/>
</mask>
<g mask="url(#mask1_375_652)">
<path d="M0.339374 40.2988C0.236605 40.2988 0.135057 40.2519 0.0683838 40.1627C-0.0443824 40.0118 -0.0145945 39.7972 0.134955 39.6834C0.134853 39.6834 0.134778 39.6834 0.134778 39.6834C0.133175 39.6834 0.160012 39.6581 0.178785 39.6237C0.200636 39.5856 0.233146 39.5289 0.276161 39.4539C0.328029 39.3651 0.39142 39.2449 0.462774 39.096C3.87173 35.023 5.94848 18.3556 10.756 11.0771C15.7876 3.45984 24.5695 0.959934 25.483 0.717056C23.8697 0.785351 22.288 1.04774 20.7549 1.44826C22.522 0.986893 24.3531 0.707558 26.2233 0.699085C26.2446 0.699085 26.2657 0.69883 26.2871 0.69883C26.7366 0.69883 27.1889 0.719368 27.6417 0.754539C27.8788 0.770714 28.1169 0.796646 28.3544 0.823605C28.4203 0.828224 28.3951 0.829254 28.4201 0.832333L28.4592 0.840038L28.5376 0.855438L28.6943 0.886253L29.0657 0.96122C30.0333 1.16687 30.988 1.48087 31.9033 2C32.3561 2.26599 32.7964 2.58024 33.1859 2.97049C33.5756 3.35843 33.9136 3.818 34.1561 4.32584C34.4015 4.83213 34.5468 5.37976 34.6035 5.91918C34.6554 6.45937 34.6315 6.99237 34.5379 7.4961C34.357 8.50895 33.9564 9.41294 33.4746 10.2304C33.2309 10.6384 32.9679 11.0286 32.686 11.3996C32.4024 11.7691 32.1002 12.1188 31.7919 12.46C30.5431 13.8104 29.1107 14.9311 27.6033 15.8942C27.2296 16.1316 26.8272 16.3668 26.4891 16.5689L25.9648 16.8836L25.4634 17.194C24.7952 17.6128 24.1335 18.0354 23.4958 18.4616C23.4655 18.4819 23.4355 18.5022 23.4052 18.5224C21.8009 19.3491 18.3983 21.1307 16.4638 23.074C13.2303 26.3215 14.0901 32.6371 20.1935 34.0628C21.6821 34.4107 22.9715 34.6117 24.0994 34.6975C24.8265 34.9319 25.483 35.0495 26.0063 35.1026C26.3891 35.1445 26.7 35.1583 26.9114 35.161C26.9391 35.1601 26.9655 35.1599 26.9902 35.1599C27.0576 35.1599 27.1131 35.1617 27.1535 35.1625C27.2092 35.1633 27.2375 35.1638 27.2375 35.1638L27.2662 35.1643C27.4695 35.1676 27.6315 35.3366 27.6282 35.5414C27.6269 35.6307 27.5941 35.7127 27.5409 35.7758C27.5409 35.7758 27.5214 35.7992 27.4829 35.8446C27.4443 35.8906 27.3868 35.9599 27.3056 36.0459C27.1428 36.2153 26.8946 36.4715 26.5204 36.7507C26.1469 37.0293 25.6501 37.3427 25.0104 37.6143C24.8506 37.6857 24.6822 37.7453 24.5052 37.813C24.3284 37.8719 24.1422 37.9325 23.9486 37.984C23.5602 38.0981 23.1397 38.1748 22.6882 38.2377C22.2715 38.2934 21.8281 38.324 21.3636 38.324C19.8345 38.324 18.076 37.9936 16.2875 37.1471C17.0806 37.5224 17.8674 37.7944 18.6313 37.9828C17.3378 37.0205 15.4203 35.6667 13.8643 33.2644C10.9821 28.8155 11.6603 23.3972 17.8766 18.4349C21.0052 15.9375 23.3312 14.221 24.871 13.1311L25.0165 13.09C25.4245 12.9729 25.7677 12.8815 26.1319 12.7686C27.5628 12.3139 28.9647 11.6471 30.1417 10.692C30.4388 10.4574 30.7153 10.2001 30.9733 9.92822C31.2327 9.65762 31.4742 9.37186 31.683 9.06865C32.1017 8.46504 32.4169 7.79777 32.5341 7.13383C32.6537 6.47066 32.5644 5.82932 32.2604 5.33766C31.9613 4.84189 31.4462 4.48784 30.8306 4.27808C30.3373 4.11043 29.7767 4.0429 29.2092 4.0429C29.067 4.0429 28.9243 4.04727 28.7821 4.05523L28.5226 4.07782L28.3633 4.09117L28.2837 4.0981L28.244 4.10144C28.2425 4.10299 28.1911 4.10247 28.2306 4.10606C28.0461 4.12172 27.863 4.13687 27.6783 4.16075C27.3095 4.2085 26.9409 4.27397 26.5735 4.35459C25.103 4.67629 23.6701 5.23368 22.3224 5.90942C20.9749 6.59159 19.6995 7.37877 18.5186 8.24707C17.3353 9.11127 16.2333 10.0371 15.2259 11.013C14.2176 11.9878 13.2975 13.0068 12.4776 14.0641C11.6598 15.1232 10.9554 16.2282 10.3615 17.3558C9.77053 18.4847 9.28187 19.6334 8.90742 20.7869C8.71613 21.3625 8.55027 21.9381 8.40985 22.512C8.37017 22.6588 8.34448 22.7862 8.31166 22.9222L8.26435 23.1228C8.24832 23.1857 8.23332 23.2789 8.21754 23.3551L8.17099 23.5952L8.14708 23.7145L8.13513 23.7741L8.12928 23.8039C8.12877 23.8062 8.12877 23.807 8.12851 23.807C8.12826 23.807 8.12877 23.8016 8.12928 23.7959C8.12978 23.7903 8.13029 23.7846 8.13004 23.7846C8.12978 23.7846 8.12927 23.7885 8.12775 23.799C8.09392 23.9626 8.06008 24.1251 8.02676 24.2868C7.88965 24.932 7.75534 25.5639 7.62408 26.1813C7.47603 26.797 7.32264 27.3991 7.1667 27.9816C7.01942 28.5647 6.84288 29.1316 6.67855 29.6813C6.51295 30.2302 6.34226 30.7601 6.15479 31.2723C5.43998 33.3193 4.65319 35.0624 3.84833 36.4284C3.3004 37.3714 2.75557 38.1358 2.2634 38.717C2.04061 38.9802 1.82876 39.2057 1.63223 39.3931C1.31644 39.6953 1.05828 39.9073 0.859555 40.0373C0.769021 40.1006 0.678411 40.1561 0.620972 40.1897C0.563024 40.2246 0.545447 40.2272 0.543259 40.23C0.482158 40.2766 0.410499 40.2988 0.339374 40.2988ZM16.2641 37.1361C16.2628 37.1353 16.2615 37.1348 16.26 37.134C16.2613 37.1348 16.2628 37.1353 16.2641 37.1361ZM16.2524 37.1304C16.2516 37.1302 16.2506 37.1296 16.2501 37.1294C16.2508 37.1296 16.2516 37.1302 16.2524 37.1304ZM10.6527 22.4344C10.6532 22.4342 10.6591 22.4213 10.6906 22.3487C10.6591 22.4216 10.6532 22.4344 10.6527 22.4344ZM19.9503 21.0249C19.9543 21.0216 19.9584 21.0182 19.9627 21.0149C19.9587 21.0182 19.9543 21.0216 19.9503 21.0249ZM20.0335 20.9579C20.0345 20.9571 20.035 20.9566 20.036 20.9561C20.0352 20.9566 20.0342 20.9574 20.0335 20.9579Z" fill="white"/>
</g>
<mask id="mask2_375_652" style="mask-type:luminance" maskUnits="userSpaceOnUse" x="0" y="0" width="26" height="40">
<path d="M0.462891 39.0957C0.508196 39.0014 0.556706 38.8954 0.60748 38.7786C0.620581 38.7486 0.63391 38.7177 0.647316 38.6861C0.94153 37.9896 1.28685 36.9172 1.58773 35.5133C1.89128 34.1108 2.16008 32.378 2.37859 30.3762C2.59024 28.3715 2.784 26.1071 2.91327 23.6146C2.92332 23.4595 2.93345 23.3037 2.9436 23.1471C2.95749 22.974 2.9715 22.8005 2.98562 22.6256C2.99338 22.5404 2.99625 22.4711 3.00818 22.3722L3.04077 22.0862C3.06343 21.8975 3.08378 21.6967 3.11093 21.5178C3.20403 20.7814 3.3503 20.0366 3.51931 19.2821C3.86625 17.7747 4.37679 16.2422 5.06082 14.7369C6.42734 11.73 8.4873 8.81568 11.1863 6.48548C13.8745 4.14578 17.1649 2.40018 20.7184 1.45742C20.7242 1.45588 20.7301 1.4546 20.7357 1.45306C20.7362 1.4528 20.7367 1.4528 20.7369 1.4528C20.7428 1.45126 20.7486 1.44972 20.7542 1.44818C20.7545 1.44818 20.7547 1.44793 20.755 1.44793C22.2881 1.04741 23.8699 0.785015 25.4831 0.716721C24.5697 0.959602 15.7877 3.45951 10.7561 11.0768C5.9486 18.3552 3.87185 35.0227 0.462891 39.0957Z" fill="white"/>
</mask>
<g mask="url(#mask2_375_652)">
<rect x="0.261719" y="0.476562" width="25.443" height="38.8503" fill="white"/>
</g>
<mask id="mask3_375_652" style="mask-type:luminance" maskUnits="userSpaceOnUse" x="9" y="13" width="16" height="25">
<path d="M18.6316 37.9824C17.8677 37.794 17.0809 37.522 16.2877 37.1467C16.2875 37.1467 16.2872 37.1464 16.287 37.1464C16.2844 37.1451 16.2819 37.1439 16.2793 37.1426C16.2781 37.1421 16.2768 37.1416 16.2758 37.141C16.2738 37.14 16.272 37.1393 16.2699 37.1382C16.2682 37.1375 16.2661 37.1364 16.2643 37.1357C16.2631 37.1349 16.2615 37.1343 16.2603 37.1336C16.2577 37.1322 16.2552 37.1312 16.2526 37.13C16.2519 37.1298 16.2511 37.1292 16.2503 37.129C16.2468 37.1271 16.2435 37.1256 16.2402 37.124C15.6541 36.8434 15.0621 36.5128 14.4857 36.1094C14.1952 35.9112 13.907 35.6961 13.6208 35.4665C13.339 35.2319 13.0587 34.9833 12.7839 34.7161C11.6965 33.645 10.6881 32.2596 10.0666 30.514C9.69296 29.4891 9.48387 28.325 9.48438 27.1324C9.48463 26.3162 9.58282 25.487 9.79344 24.68C9.85449 24.4317 9.92699 24.1873 10.0066 23.9457C10.044 23.8235 10.0908 23.7059 10.1351 23.5871C10.1832 23.4633 10.2185 23.3611 10.2793 23.2199L10.4518 22.8214C10.4851 22.7434 10.5011 22.719 10.5227 22.6772L10.5853 22.5598L10.6477 22.4425C10.6479 22.4422 10.6479 22.442 10.6482 22.4417C10.6484 22.441 10.6487 22.4402 10.6489 22.4397C10.6522 22.4325 10.6535 22.4304 10.6535 22.4304C10.6538 22.4304 10.6535 22.4312 10.6532 22.4322C10.653 22.433 10.6527 22.434 10.653 22.434C10.6535 22.434 10.6594 22.4212 10.6909 22.3483C10.6917 22.347 10.6922 22.3457 10.6927 22.3442C10.6929 22.3442 10.6929 22.3439 10.6929 22.3436C10.6934 22.3426 10.6939 22.3413 10.6945 22.3403C10.6945 22.3401 10.6947 22.3395 10.695 22.3393L10.7148 22.2995L10.755 22.2199C10.8089 22.1136 10.8616 22.0076 10.9203 21.9015C11.3742 21.0509 11.9536 20.2268 12.5952 19.5159C13.2362 18.7993 13.9299 18.1798 14.6432 17.6424C15.3529 17.0961 16.0909 16.6373 16.8349 16.2196C18.3291 15.3931 19.8691 14.7546 21.4402 14.2021C22.2272 13.9279 23.0176 13.6778 23.8199 13.4367L24.4258 13.2567L24.8713 13.1307C23.3315 14.2206 21.0055 15.9371 17.8768 18.4345C11.6606 23.3968 10.9824 28.8151 13.8645 33.2639C15.4206 35.6663 17.3381 37.0201 18.6316 37.9824Z" fill="white"/>
</mask>
<g mask="url(#mask3_375_652)">
<rect x="9.31787" y="12.9277" width="15.7766" height="25.2943" fill="white"/>
</g>
<mask id="mask4_375_652" style="mask-type:luminance" maskUnits="userSpaceOnUse" x="19" y="18" width="6" height="17">
<path d="M24.1089 34.6992C24.1058 34.699 24.1027 34.6987 24.0994 34.6984C23.7659 34.5911 23.4174 34.4589 23.06 34.2972C23.4213 34.4607 23.7718 34.5911 24.1089 34.6992ZM19.9749 21.0058C19.976 21.0051 19.9767 21.0046 19.9777 21.0038C19.977 21.0046 19.976 21.0051 19.9749 21.0058ZM19.9871 20.9961C19.9892 20.9945 19.9912 20.993 19.993 20.9915C19.991 20.993 19.9892 20.9945 19.9871 20.9961ZM20.0479 20.9473C21.0594 20.1368 22.2028 19.3296 23.4052 18.5234C23.406 18.5229 23.4068 18.5226 23.4075 18.5221C22.2043 19.3288 21.0599 20.1365 20.0479 20.9473Z" fill="white"/>
</mask>
<g mask="url(#mask4_375_652)">
<path d="M24.1089 34.6992C24.1058 34.699 24.1027 34.6987 24.0994 34.6984C23.7659 34.5911 23.4174 34.4589 23.06 34.2972C23.4213 34.4607 23.7718 34.5911 24.1089 34.6992ZM19.9749 21.0058C19.976 21.0051 19.9767 21.0046 19.9777 21.0038C19.977 21.0046 19.976 21.0051 19.9749 21.0058ZM19.9871 20.9961C19.9892 20.9945 19.9912 20.993 19.993 20.9915C19.991 20.993 19.9892 20.9945 19.9871 20.9961ZM20.0479 20.9473C21.0594 20.1368 22.2028 19.3296 23.4052 18.5234C23.406 18.5229 23.4068 18.5226 23.4075 18.5221C22.2043 19.3288 21.0599 20.1365 20.0479 20.9473Z" fill="white"/>
</g>
<mask id="mask5_375_652" style="mask-type:luminance" maskUnits="userSpaceOnUse" x="14" y="18" width="11" height="17">
<path d="M24.0996 34.6973C22.9717 34.6115 21.6822 34.4105 20.1936 34.0626C14.0903 32.6369 13.2305 26.3213 16.4639 23.0737C18.3984 21.1305 21.801 19.3489 23.4054 18.5222C22.2029 19.3284 21.0595 20.1356 20.0481 20.9461H20.0478C20.044 20.9495 20.0399 20.9525 20.0361 20.9559C20.0351 20.9564 20.0346 20.9569 20.0336 20.9577C20.0305 20.9602 20.0272 20.9628 20.0239 20.9654C20.0226 20.9664 20.0214 20.9674 20.0201 20.9685C20.0173 20.9708 20.0145 20.9731 20.0117 20.9751C20.0099 20.9767 20.0084 20.978 20.0066 20.9795C20.0041 20.9813 20.002 20.9831 19.9995 20.9851C19.9975 20.9867 19.9952 20.9885 19.9931 20.9903C19.9913 20.9918 19.9893 20.9934 19.9873 20.9949C19.9842 20.9975 19.9812 21 19.9779 21.0026C19.9768 21.0034 19.9761 21.0039 19.9751 21.0047C19.972 21.0072 19.9687 21.0098 19.9657 21.0124C19.9646 21.0131 19.9636 21.0139 19.9629 21.0147C19.9585 21.018 19.9545 21.0213 19.9504 21.0247C18.8886 21.8778 17.982 22.7313 17.4084 23.5549C17.1174 23.9677 16.9103 24.3646 16.7437 24.7934C16.7218 24.8458 16.7027 24.902 16.6826 24.9567L16.6676 24.9978L16.66 25.0181C16.6605 25.0175 16.6608 25.0168 16.661 25.016C16.6613 25.0152 16.6618 25.0142 16.6623 25.0132C16.6628 25.0119 16.6633 25.0106 16.6638 25.0093C16.6646 25.008 16.6651 25.0068 16.6656 25.0055C16.6658 25.0045 16.6664 25.0034 16.6669 25.0027C16.6671 25.0016 16.6676 25.0009 16.6679 25.0001C16.6844 24.9621 16.6898 24.9505 16.69 24.9505C16.6905 24.9505 16.6877 24.9575 16.6852 24.9647C16.6847 24.9659 16.6842 24.967 16.6839 24.968C16.6816 24.9739 16.6798 24.979 16.6801 24.979C16.6801 24.979 16.6801 24.979 16.6803 24.9788C16.6803 24.9788 16.6803 24.9788 16.6803 24.9785C16.6806 24.9783 16.6809 24.9777 16.6811 24.9772C16.6814 24.9767 16.6816 24.9765 16.6816 24.9762L16.6432 25.1036L16.6048 25.2309C16.5946 25.2658 16.5783 25.3138 16.5783 25.3282C16.5783 25.3303 16.5786 25.3315 16.5794 25.3321C16.5789 25.3654 16.5776 25.3978 16.5748 25.4291L16.5605 25.5618C16.5549 25.6101 16.5468 25.6579 16.5455 25.7054C16.5366 25.7996 16.53 25.8923 16.5295 25.9834C16.5295 25.9975 16.5295 26.0119 16.5295 26.026C16.5298 26.7359 16.689 27.3462 16.9243 28.005C17.4081 29.3354 18.3773 30.7891 19.523 31.8759C20.6655 32.9802 21.9155 33.7776 23.0515 34.2921C23.0543 34.2934 23.0571 34.2947 23.0599 34.296C23.0602 34.296 23.0602 34.296 23.0602 34.296C23.4176 34.4577 23.7661 34.5899 24.0996 34.6973Z" fill="white"/>
</mask>
<g mask="url(#mask5_375_652)">
<rect x="13.083" y="18.3457" width="11.2741" height="16.5394" fill="white"/>
</g>
<path d="M42.0484 27.9805V13.4751H39.3921V11.0552H47.2498C48.8908 11.0552 50.1935 11.185 51.1577 11.4446C52.122 11.695 52.9193 12.2327 53.5498 13.0579C54.1803 13.8738 54.4955 14.8937 54.4955 16.1175C54.4955 18.6765 53.165 20.2851 50.5041 20.9434L53.9253 27.9805H56.2896V30.4004H52.1034L47.6948 21.3606H44.969V27.9805H47.4445V30.4004H39.3921V27.9805H42.0484ZM44.969 18.9407H47.2498C48.3531 18.9407 49.1644 18.8712 49.6836 18.7321C50.212 18.5838 50.6432 18.2917 50.977 17.8559C51.3107 17.4109 51.4776 16.8175 51.4776 16.0758C51.4776 15.4453 51.3061 14.9122 50.963 14.4764C50.6293 14.0407 50.212 13.7672 49.7114 13.6559C49.22 13.5354 48.4644 13.4751 47.4445 13.4751H44.969V18.9407ZM59.8148 27.9805V13.4751H57.3115V11.0552H73.3884V16.8824H70.9963V13.4751H62.7354V19.2328H69.9255V21.6527H62.7354V27.9805H70.9963V24.4619H73.3884V30.4004H57.3115V27.9805H59.8148ZM77.5256 27.9805V13.4751H74.758V11.0552H81.364L89.8475 26.0891V13.4751H87.1078V11.0552H95.0489V13.4751H92.1979V30.5951H89.1939L79.9176 14.087V27.9805H82.6852V30.4004H74.758V27.9805H77.5256ZM113.163 22.5288L115.68 23.9335C115.115 26.0845 113.97 27.7534 112.245 28.9401C110.53 30.1176 108.555 30.7064 106.321 30.7064C103.391 30.7064 101.04 29.756 99.2695 27.8553C97.4986 25.9547 96.6132 23.6043 96.6132 20.8043C96.6132 17.7354 97.5032 15.2923 99.2834 13.4751C101.064 11.6579 103.386 10.7493 106.251 10.7493C108.782 10.7493 110.91 11.44 112.634 12.8215V11.0552H115.138V17.2718H112.634C112.078 16.0109 111.221 15.0374 110.062 14.3513C108.903 13.6559 107.683 13.3082 106.404 13.3082C104.475 13.3082 102.89 14.0036 101.648 15.3943C100.415 16.7851 99.798 18.542 99.798 20.6652C99.798 22.8441 100.461 24.6242 101.787 26.0057C103.113 27.3871 104.684 28.0779 106.501 28.0779C107.994 28.0779 109.352 27.6004 110.576 26.6454C111.8 25.6812 112.662 24.309 113.163 22.5288ZM118.746 20.6374C118.746 17.8281 119.664 15.4778 121.5 13.5864C123.336 11.695 125.728 10.7493 128.676 10.7493C131.653 10.7493 134.077 11.695 135.95 13.5864C137.823 15.4778 138.759 17.8467 138.759 20.693C138.759 23.595 137.804 25.9918 135.894 27.8832C133.994 29.7653 131.574 30.7064 128.635 30.7064C126.762 30.7064 125.037 30.2613 123.461 29.3712C121.894 28.4719 120.717 27.2249 119.929 25.6302C119.141 24.0262 118.746 22.3619 118.746 20.6374ZM121.931 20.6513C121.931 22.7745 122.552 24.5547 123.795 25.9918C125.037 27.4288 126.669 28.1474 128.69 28.1474C130.693 28.1474 132.339 27.4149 133.627 25.95C134.916 24.4758 135.56 22.7189 135.56 20.6791C135.56 18.6208 134.902 16.8824 133.586 15.4639C132.278 14.036 130.633 13.3221 128.649 13.3221C126.674 13.3221 125.06 14.0221 123.809 15.4221C122.557 16.8222 121.931 18.5652 121.931 20.6513ZM141.436 30.4004V23.3772H143.856V25.0878C145.015 27.1924 146.531 28.2447 148.404 28.2447C149.359 28.2447 150.165 27.9527 150.824 27.3686C151.482 26.7845 151.811 26.0196 151.811 25.0739C151.811 24.156 151.542 23.4977 151.004 23.099C150.467 22.6911 149.451 22.2878 147.959 21.8891C146.225 21.4255 144.941 20.9897 144.106 20.5818C143.272 20.1646 142.604 19.5758 142.104 18.8155C141.612 18.046 141.367 17.1374 141.367 16.0897C141.367 14.4672 141.904 13.1738 142.98 12.2095C144.065 11.236 145.423 10.7493 147.055 10.7493C148.603 10.7493 150.04 11.2499 151.366 12.2513V10.9579H153.73V16.8268H151.366V15.4778C150.374 13.9851 149.006 13.2387 147.263 13.2387C146.206 13.2387 145.395 13.4844 144.829 13.9758C144.264 14.4579 143.981 15.0374 143.981 15.7142C143.981 16.2334 144.125 16.6924 144.412 17.091C144.7 17.4804 145.066 17.7679 145.511 17.9533C145.956 18.1387 146.832 18.3983 148.139 18.7321C149.845 19.1771 151.083 19.5944 151.853 19.9838C152.622 20.3639 153.285 21.0036 153.841 21.903C154.398 22.8023 154.676 23.8361 154.676 25.0043C154.676 26.6547 154.092 28.0176 152.924 29.0931C151.765 30.1686 150.328 30.7064 148.612 30.7064C146.851 30.7064 145.265 30.0712 143.856 28.801V30.4004H141.436ZM162.582 27.9805V13.4751H158.591V18.4122H156.198V11.0552H171.872V18.4122H169.48V13.4751H165.503V27.9805H168.02V30.4004H160.106V27.9805H162.582ZM178.165 13.4751V23.1546C178.165 24.6566 178.239 25.6951 178.387 26.2699C178.545 26.8447 178.93 27.3361 179.542 27.7441C180.154 28.1428 180.942 28.3421 181.906 28.3421C183.056 28.3421 183.936 28.1706 184.548 27.8275C185.16 27.4752 185.564 27.007 185.758 26.4229C185.962 25.8295 186.064 24.7864 186.064 23.2937V13.4751H183.825V11.0552H191.391V13.4751H188.971V23.5858C188.971 24.9487 188.911 25.9408 188.79 26.562C188.679 27.1739 188.368 27.8183 187.858 28.4951C187.348 29.1626 186.63 29.7004 185.703 30.1083C184.776 30.507 183.649 30.7064 182.323 30.7064C180.858 30.7064 179.639 30.5209 178.666 30.1501C177.692 29.7699 176.96 29.2646 176.468 28.6342C175.977 28.0037 175.648 27.3315 175.481 26.6176C175.323 25.9037 175.244 24.7957 175.244 23.2937V13.4751H172.852V11.0552H180.46V13.4751H178.165ZM195.055 27.9805V13.4751H192.733V11.0552H199.353L204.443 24.309L209.588 11.0552H216.278V13.4751H213.941V27.9805H216.278V30.4004H208.99V27.9805H211.299V13.4751L204.623 30.5951H204.053L197.447 13.4751V27.9805H199.575V30.4004H192.733V27.9805H195.055ZM220.526 27.9805V13.4751H218.023V11.0552H234.1V16.8824H231.708V13.4751H223.447V19.2328H230.637V21.6527H223.447V27.9805H231.708V24.4619H234.1V30.4004H218.023V27.9805H220.526Z" fill="white"/>
</svg>
