<svg width="30" height="33" viewBox="0 0 30 33" fill="none" xmlns="http://www.w3.org/2000/svg">
<mask id="mask0_375_2039" style="mask-type:luminance" maskUnits="userSpaceOnUse" x="14" y="1" width="15" height="10">
<path d="M14.2112 7.69768C16.4718 5.844 21.9505 3.69634 24.6657 4.51321C27.1146 5.24985 27.4915 7.31749 24.3361 10.502C24.3361 10.502 29.5634 8.22058 28.81 4.70341C28.0564 1.18604 24.0535 1.51873 20.4746 2.94473C16.8955 4.37072 14.2112 7.69768 14.2112 7.69768Z" fill="white"/>
</mask>
<g mask="url(#mask0_375_2039)">
<path d="M14.2112 7.69768C16.4718 5.844 21.9505 3.69634 24.6657 4.51321C27.1146 5.24985 27.4915 7.31749 24.3361 10.502C24.3361 10.502 29.5634 8.22058 28.81 4.70341C28.0564 1.18604 24.0535 1.51873 20.4746 2.94473C16.8955 4.37072 14.2112 7.69768 14.2112 7.69768Z" fill="#3D1551"/>
</g>
<mask id="mask1_375_2039" style="mask-type:luminance" maskUnits="userSpaceOnUse" x="0" y="0" width="30" height="33">
<path d="M1.24521 33C1.15957 33 1.07495 32.9609 1.01939 32.8866C0.925417 32.7608 0.95024 32.582 1.07486 32.4872C1.07478 32.4872 1.07472 32.4872 1.07472 32.4872C1.07338 32.4872 1.09575 32.466 1.11139 32.4374C1.1296 32.4057 1.15669 32.3584 1.19254 32.2959C1.23576 32.2219 1.28859 32.1217 1.34805 31.9977C4.18885 28.6035 5.91947 14.7139 9.92573 8.6486C14.1187 2.30084 21.437 0.217587 22.1982 0.0151901C20.8539 0.0721016 19.5357 0.29076 18.2581 0.624523C19.7308 0.240051 21.2566 0.00727463 22.8151 0.000213623C22.8329 0.000213623 22.8505 0 22.8683 0C23.2429 0 23.6198 0.0171127 23.9971 0.0464249C24.1947 0.059906 24.3931 0.0815125 24.5911 0.103977C24.646 0.10783 24.625 0.108685 24.6458 0.111252L24.6784 0.117672L24.7437 0.130508L24.8743 0.156185L25.1838 0.218658C25.9902 0.390034 26.7858 0.651695 27.5485 1.08431C27.9258 1.30596 28.2927 1.56784 28.6173 1.89305C28.942 2.21633 29.2238 2.59931 29.4258 3.0225C29.6304 3.44442 29.7514 3.90078 29.7987 4.35029C29.8419 4.80045 29.822 5.24462 29.744 5.66439C29.5933 6.50843 29.2594 7.26176 28.8579 7.94298C28.6548 8.28295 28.4356 8.60816 28.2007 8.91732C27.9644 9.2252 27.7125 9.5166 27.4556 9.80095C26.415 10.9263 25.2213 11.8602 23.9651 12.6628C23.6537 12.8607 23.3184 13.0567 23.0366 13.225L22.5997 13.4873L22.1819 13.746C21.625 14.095 21.0737 14.4471 20.5422 14.8023C20.517 14.8192 20.492 14.8361 20.4668 14.853C19.1298 15.5419 16.2943 17.0265 14.6822 18.646C11.9877 21.3522 12.7042 26.6153 17.7903 27.8033C19.0308 28.0932 20.1053 28.2608 21.0453 28.3322C21.6511 28.5276 22.1982 28.6256 22.6343 28.6698C22.9533 28.7047 23.2124 28.7163 23.3885 28.7184C23.4116 28.7178 23.4337 28.7175 23.4542 28.7175C23.5104 28.7175 23.5566 28.719 23.5903 28.7197C23.6368 28.7204 23.6603 28.7208 23.6603 28.7208L23.6842 28.7212C23.8536 28.7239 23.9887 28.8648 23.9859 29.0354C23.9848 29.1099 23.9575 29.1782 23.9132 29.2308C23.9132 29.2308 23.8969 29.2503 23.8649 29.2882C23.8326 29.3265 23.7847 29.3842 23.7171 29.4559C23.5814 29.5971 23.3745 29.8106 23.0627 30.0432C22.7515 30.2754 22.3375 30.5365 21.8044 30.7629C21.6713 30.8224 21.5309 30.8721 21.3834 30.9285C21.2361 30.9776 21.0809 31.028 20.9196 31.071C20.5959 31.166 20.2455 31.2299 19.8692 31.2824C19.522 31.3288 19.1525 31.3543 18.7654 31.3543C17.4912 31.3543 16.0257 31.0789 14.5353 30.3736C15.1963 30.6863 15.8519 30.913 16.4885 31.07C15.4106 30.2681 13.8126 29.1399 12.5159 27.1379C10.1142 23.4306 10.6793 18.9153 15.8595 14.78C18.4667 12.6989 20.4051 11.2684 21.6882 10.3602L21.8095 10.326C22.1495 10.2284 22.4355 10.1523 22.739 10.0581C23.9314 9.67921 25.0997 9.12357 26.0805 8.32767C26.3281 8.13212 26.5585 7.91774 26.7735 7.69116C26.9897 7.46565 27.1909 7.22752 27.3649 6.97485C27.7138 6.47184 27.9765 5.91578 28.0742 5.3625C28.1738 4.80986 28.0994 4.27541 27.8461 3.86569C27.5968 3.45255 27.1675 3.15751 26.6545 2.98271C26.2435 2.843 25.7763 2.78673 25.3034 2.78673C25.1849 2.78673 25.066 2.79037 24.9475 2.797L24.7312 2.81582L24.5985 2.82695L24.5322 2.83273L24.4991 2.83551C24.4978 2.8368 24.455 2.83637 24.4879 2.83936C24.3342 2.85241 24.1816 2.86503 24.0277 2.88493C23.7203 2.92473 23.4131 2.97928 23.107 3.04646C21.8815 3.31455 20.6875 3.77904 19.5644 4.34216C18.4415 4.91063 17.3786 5.56661 16.3946 6.2902C15.4084 7.01036 14.4901 7.78188 13.6507 8.59511C12.8104 9.40749 12.0436 10.2567 11.3604 11.1377C10.6789 12.0203 10.0919 12.9411 9.59695 13.8808C9.10451 14.8216 8.69729 15.7788 8.38525 16.7401C8.22584 17.2197 8.08763 17.6994 7.97061 18.1776C7.93755 18.3 7.91614 18.4061 7.88879 18.5195L7.84936 18.6866C7.83601 18.739 7.8235 18.8167 7.81036 18.8802L7.77156 19.0803L7.75164 19.1798L7.74167 19.2294L7.7368 19.2542C7.73638 19.2561 7.73637 19.2568 7.73616 19.2568C7.73595 19.2568 7.73638 19.2523 7.7368 19.2476C7.73722 19.2429 7.73765 19.2382 7.73743 19.2382C7.73722 19.2382 7.7368 19.2414 7.73553 19.2502C7.70733 19.3864 7.67914 19.5219 7.65137 19.6567C7.53711 20.1943 7.42519 20.7209 7.3158 21.2354C7.19243 21.7485 7.0646 22.2502 6.93466 22.7357C6.81192 23.2215 6.6648 23.6939 6.52786 24.152C6.38986 24.6094 6.24762 25.051 6.09139 25.4779C5.49572 27.1837 4.84006 28.6363 4.16934 29.7747C3.71273 30.5605 3.25871 31.1975 2.84857 31.6818C2.66291 31.9011 2.48637 32.089 2.3226 32.2452C2.05944 32.497 1.8443 32.6737 1.6787 32.782C1.60325 32.8349 1.52774 32.8811 1.47988 32.9091C1.43159 32.9381 1.41694 32.9403 1.41512 32.9427C1.3642 32.9815 1.30448 33 1.24521 33ZM14.5158 30.3644C14.5147 30.3637 14.5137 30.3633 14.5124 30.3626C14.5135 30.3633 14.5147 30.3637 14.5158 30.3644ZM14.506 30.3596C14.5054 30.3594 14.5046 30.359 14.5041 30.3588C14.5048 30.359 14.5054 30.3594 14.506 30.3596ZM9.83967 18.113C9.84009 18.1128 9.84496 18.1021 9.87125 18.0415C9.84496 18.1023 9.84009 18.113 9.83967 18.113ZM17.5876 16.9384C17.591 16.9356 17.5944 16.9328 17.598 16.9301C17.5946 16.9328 17.591 16.9356 17.5876 16.9384ZM17.6569 16.8826C17.6578 16.8819 17.6582 16.8815 17.6591 16.8811C17.6584 16.8815 17.6576 16.8821 17.6569 16.8826Z" fill="white"/>
</mask>
<g mask="url(#mask1_375_2039)">
<path d="M1.24521 33C1.15957 33 1.07495 32.9609 1.01939 32.8866C0.925417 32.7608 0.95024 32.582 1.07486 32.4872C1.07478 32.4872 1.07472 32.4872 1.07472 32.4872C1.07338 32.4872 1.09575 32.466 1.11139 32.4374C1.1296 32.4057 1.15669 32.3584 1.19254 32.2959C1.23576 32.2219 1.28859 32.1217 1.34805 31.9977C4.18885 28.6035 5.91947 14.7139 9.92573 8.6486C14.1187 2.30084 21.437 0.217587 22.1982 0.0151901C20.8539 0.0721016 19.5357 0.29076 18.2581 0.624523C19.7308 0.240051 21.2566 0.00727463 22.8151 0.000213623C22.8329 0.000213623 22.8505 0 22.8683 0C23.2429 0 23.6198 0.0171127 23.9971 0.0464249C24.1947 0.059906 24.3931 0.0815125 24.5911 0.103977C24.646 0.10783 24.625 0.108685 24.6458 0.111252L24.6784 0.117672L24.7437 0.130508L24.8743 0.156185L25.1838 0.218658C25.9902 0.390034 26.7858 0.651695 27.5485 1.08431C27.9258 1.30596 28.2927 1.56784 28.6173 1.89305C28.942 2.21633 29.2238 2.59931 29.4258 3.0225C29.6304 3.44442 29.7514 3.90078 29.7987 4.35029C29.8419 4.80045 29.822 5.24462 29.744 5.66439C29.5933 6.50843 29.2594 7.26176 28.8579 7.94298C28.6548 8.28295 28.4356 8.60816 28.2007 8.91732C27.9644 9.2252 27.7125 9.5166 27.4556 9.80095C26.415 10.9263 25.2213 11.8602 23.9651 12.6628C23.6537 12.8607 23.3184 13.0567 23.0366 13.225L22.5997 13.4873L22.1819 13.746C21.625 14.095 21.0737 14.4471 20.5422 14.8023C20.517 14.8192 20.492 14.8361 20.4668 14.853C19.1298 15.5419 16.2943 17.0265 14.6822 18.646C11.9877 21.3522 12.7042 26.6153 17.7903 27.8033C19.0308 28.0932 20.1053 28.2608 21.0453 28.3322C21.6511 28.5276 22.1982 28.6256 22.6343 28.6698C22.9533 28.7047 23.2124 28.7163 23.3885 28.7184C23.4116 28.7178 23.4337 28.7175 23.4542 28.7175C23.5104 28.7175 23.5566 28.719 23.5903 28.7197C23.6368 28.7204 23.6603 28.7208 23.6603 28.7208L23.6842 28.7212C23.8536 28.7239 23.9887 28.8648 23.9859 29.0354C23.9848 29.1099 23.9575 29.1782 23.9132 29.2308C23.9132 29.2308 23.8969 29.2503 23.8649 29.2882C23.8326 29.3265 23.7847 29.3842 23.7171 29.4559C23.5814 29.5971 23.3745 29.8106 23.0627 30.0432C22.7515 30.2754 22.3375 30.5365 21.8044 30.7629C21.6713 30.8224 21.5309 30.8721 21.3834 30.9285C21.2361 30.9776 21.0809 31.028 20.9196 31.071C20.5959 31.166 20.2455 31.2299 19.8692 31.2824C19.522 31.3288 19.1525 31.3543 18.7654 31.3543C17.4912 31.3543 16.0257 31.0789 14.5353 30.3736C15.1963 30.6863 15.8519 30.913 16.4885 31.07C15.4106 30.2681 13.8126 29.1399 12.5159 27.1379C10.1142 23.4306 10.6793 18.9153 15.8595 14.78C18.4667 12.6989 20.4051 11.2684 21.6882 10.3602L21.8095 10.326C22.1495 10.2284 22.4355 10.1523 22.739 10.0581C23.9314 9.67921 25.0997 9.12357 26.0805 8.32767C26.3281 8.13212 26.5585 7.91774 26.7735 7.69116C26.9897 7.46565 27.1909 7.22752 27.3649 6.97485C27.7138 6.47184 27.9765 5.91578 28.0742 5.3625C28.1738 4.80986 28.0994 4.27541 27.8461 3.86569C27.5968 3.45255 27.1675 3.15751 26.6545 2.98271C26.2435 2.843 25.7763 2.78673 25.3034 2.78673C25.1849 2.78673 25.066 2.79037 24.9475 2.797L24.7312 2.81582L24.5985 2.82695L24.5322 2.83273L24.4991 2.83551C24.4978 2.8368 24.455 2.83637 24.4879 2.83936C24.3342 2.85241 24.1816 2.86503 24.0277 2.88493C23.7203 2.92473 23.4131 2.97928 23.107 3.04646C21.8815 3.31455 20.6875 3.77904 19.5644 4.34216C18.4415 4.91063 17.3786 5.56661 16.3946 6.2902C15.4084 7.01036 14.4901 7.78188 13.6507 8.59511C12.8104 9.40749 12.0436 10.2567 11.3604 11.1377C10.6789 12.0203 10.0919 12.9411 9.59695 13.8808C9.10451 14.8216 8.69729 15.7788 8.38525 16.7401C8.22584 17.2197 8.08763 17.6994 7.97061 18.1776C7.93755 18.3 7.91614 18.4061 7.88879 18.5195L7.84936 18.6866C7.83601 18.739 7.8235 18.8167 7.81036 18.8802L7.77156 19.0803L7.75164 19.1798L7.74167 19.2294L7.7368 19.2542C7.73638 19.2561 7.73637 19.2568 7.73616 19.2568C7.73595 19.2568 7.73638 19.2523 7.7368 19.2476C7.73722 19.2429 7.73765 19.2382 7.73743 19.2382C7.73722 19.2382 7.7368 19.2414 7.73553 19.2502C7.70733 19.3864 7.67914 19.5219 7.65137 19.6567C7.53711 20.1943 7.42519 20.7209 7.3158 21.2354C7.19243 21.7485 7.0646 22.2502 6.93466 22.7357C6.81192 23.2215 6.6648 23.6939 6.52786 24.152C6.38986 24.6094 6.24762 25.051 6.09139 25.4779C5.49572 27.1837 4.84006 28.6363 4.16934 29.7747C3.71273 30.5605 3.25871 31.1975 2.84857 31.6818C2.66291 31.9011 2.48637 32.089 2.3226 32.2452C2.05944 32.497 1.8443 32.6737 1.6787 32.782C1.60325 32.8349 1.52774 32.8811 1.47988 32.9091C1.43159 32.9381 1.41694 32.9403 1.41512 32.9427C1.3642 32.9815 1.30448 33 1.24521 33ZM14.5158 30.3644C14.5147 30.3637 14.5137 30.3633 14.5124 30.3626C14.5135 30.3633 14.5147 30.3637 14.5158 30.3644ZM14.506 30.3596C14.5054 30.3594 14.5046 30.359 14.5041 30.3588C14.5048 30.359 14.5054 30.3594 14.506 30.3596ZM9.83967 18.113C9.84009 18.1128 9.84496 18.1021 9.87125 18.0415C9.84496 18.1023 9.84009 18.113 9.83967 18.113ZM17.5876 16.9384C17.591 16.9356 17.5944 16.9328 17.598 16.9301C17.5946 16.9328 17.591 16.9356 17.5876 16.9384ZM17.6569 16.8826C17.6578 16.8819 17.6582 16.8815 17.6591 16.8811C17.6584 16.8815 17.6576 16.8821 17.6569 16.8826Z" fill="#3D1551"/>
</g>
<mask id="mask2_375_2039" style="mask-type:luminance" maskUnits="userSpaceOnUse" x="1" y="0" width="22" height="32">
<path d="M1.34814 31.998C1.3859 31.9195 1.42632 31.8311 1.46864 31.7338C1.47955 31.7088 1.49066 31.683 1.50183 31.6567C1.74701 31.0763 2.03478 30.1826 2.28551 29.0127C2.53847 27.8439 2.76247 26.4 2.94456 24.7318C3.12093 23.0612 3.2824 21.1742 3.39013 19.0971C3.3985 18.9679 3.40694 18.838 3.4154 18.7075C3.42697 18.5633 3.43865 18.4187 3.45042 18.273C3.45688 18.2019 3.45928 18.1442 3.46922 18.0618L3.49638 17.8235C3.51526 17.6662 3.53222 17.4989 3.55484 17.3498C3.63243 16.7362 3.75432 16.1155 3.89516 15.4867C4.18428 14.2306 4.60973 12.9535 5.17975 11.6991C6.31852 9.19327 8.03516 6.76469 10.2843 4.82286C12.5245 2.87311 15.2665 1.41845 18.2277 0.632812C18.2326 0.631529 18.2375 0.630461 18.2421 0.629177C18.2425 0.628963 18.243 0.628963 18.2432 0.628963C18.2481 0.62768 18.2529 0.626398 18.2576 0.625114C18.2578 0.625114 18.258 0.624899 18.2582 0.624899C19.5359 0.291134 20.854 0.0724754 22.1984 0.015564C21.4371 0.217962 14.1188 2.30122 9.92583 8.64897C5.91957 14.7143 4.18894 28.6039 1.34814 31.998Z" fill="white"/>
</mask>
<g mask="url(#mask2_375_2039)">
<rect x="1.18042" y="-0.18457" width="21.2025" height="32.3753" fill="#3D1551"/>
</g>
<mask id="mask3_375_2039" style="mask-type:luminance" maskUnits="userSpaceOnUse" x="8" y="10" width="14" height="22">
<path d="M16.4886 31.0703C15.8521 30.9133 15.1964 30.6866 14.5354 30.3739C14.5352 30.3739 14.535 30.3736 14.5348 30.3736C14.5327 30.3725 14.5306 30.3715 14.5284 30.3705C14.5274 30.37 14.5263 30.3696 14.5255 30.3691C14.5238 30.3683 14.5223 30.3677 14.5206 30.3668C14.5191 30.3662 14.5174 30.3653 14.5159 30.3647C14.5149 30.364 14.5136 30.3636 14.5125 30.3629C14.5104 30.3618 14.5083 30.361 14.5062 30.3599C14.5056 30.3598 14.5049 30.3593 14.5043 30.3591C14.5013 30.3576 14.4986 30.3563 14.4958 30.355C14.0074 30.1211 13.5141 29.8456 13.0338 29.5095C12.7917 29.3443 12.5515 29.165 12.313 28.9737C12.0781 28.7782 11.8445 28.5711 11.6156 28.3483C10.7094 27.4558 9.86907 26.3013 9.35119 24.8466C9.03979 23.9925 8.86554 23.0224 8.86597 22.0286C8.86618 21.3485 8.948 20.6574 9.12352 19.985C9.1744 19.7781 9.23482 19.5744 9.30117 19.3731C9.33233 19.2712 9.37133 19.1732 9.40822 19.0742C9.44828 18.971 9.47775 18.8859 9.52841 18.7682L9.67214 18.4362C9.69991 18.3711 9.71326 18.3508 9.73128 18.3159L9.78343 18.2181L9.83536 18.1204C9.83558 18.1202 9.83558 18.1199 9.83579 18.1197C9.836 18.1191 9.83621 18.1184 9.83642 18.118C9.83918 18.112 9.84024 18.1103 9.84024 18.1103C9.84045 18.1103 9.84024 18.111 9.84003 18.1118C9.83981 18.1125 9.8396 18.1133 9.83981 18.1133C9.84024 18.1133 9.84511 18.1026 9.8714 18.0418C9.87204 18.0408 9.87246 18.0397 9.87288 18.0384C9.8731 18.0384 9.87309 18.0382 9.87309 18.038C9.87352 18.0371 9.87394 18.0361 9.87437 18.0352C9.87437 18.035 9.87458 18.0346 9.87479 18.0344L9.89133 18.0012L9.92482 17.9349C9.96976 17.8463 10.0136 17.7579 10.0626 17.6696C10.4408 16.9607 10.9237 16.274 11.4583 15.6815C11.9925 15.0844 12.5706 14.5681 13.165 14.1203C13.7564 13.665 14.3714 13.2827 14.9914 12.9346C16.2366 12.2459 17.5199 11.7138 18.8291 11.2534C19.485 11.0249 20.1437 10.8165 20.8122 10.6156L21.3172 10.4656L21.6884 10.3605C20.4052 11.2688 18.4669 12.6992 15.8597 14.7804C10.6795 18.9156 10.1143 23.4309 12.5161 27.1383C13.8128 29.1402 15.4107 30.2684 16.4886 31.0703Z" fill="white"/>
</mask>
<g mask="url(#mask3_375_2039)">
<rect x="8.72705" y="10.1924" width="13.1472" height="21.0786" fill="#3D1551"/>
</g>
<mask id="mask4_375_2039" style="mask-type:luminance" maskUnits="userSpaceOnUse" x="17" y="14" width="5" height="15">
<path d="M21.0531 28.333C21.0505 28.3328 21.048 28.3326 21.0452 28.3324C20.7673 28.2429 20.4769 28.1327 20.1791 27.998C20.4801 28.1342 20.7722 28.2429 21.0531 28.333ZM17.6081 16.9219C17.609 16.9212 17.6096 16.9208 17.6105 16.9201C17.6098 16.9208 17.609 16.9212 17.6081 16.9219ZM17.6183 16.9137C17.62 16.9124 17.6217 16.9112 17.6232 16.9099C17.6215 16.9112 17.62 16.9124 17.6183 16.9137ZM17.669 16.8731C18.5118 16.1976 19.4647 15.525 20.4667 14.8531C20.4674 14.8527 20.468 14.8525 20.4686 14.8521C19.466 15.5243 18.5122 16.1974 17.669 16.8731Z" fill="white"/>
</mask>
<g mask="url(#mask4_375_2039)">
<path d="M21.0531 28.333C21.0505 28.3328 21.048 28.3326 21.0452 28.3324C20.7673 28.2429 20.4769 28.1327 20.1791 27.998C20.4801 28.1342 20.7722 28.2429 21.0531 28.333ZM17.6081 16.9219C17.609 16.9212 17.6096 16.9208 17.6105 16.9201C17.6098 16.9208 17.609 16.9212 17.6081 16.9219ZM17.6183 16.9137C17.62 16.9124 17.6217 16.9112 17.6232 16.9099C17.6215 16.9112 17.62 16.9124 17.6183 16.9137ZM17.669 16.8731C18.5118 16.1976 19.4647 15.525 20.4667 14.8531C20.4674 14.8527 20.468 14.8525 20.4686 14.8521C19.466 15.5243 18.5122 16.1974 17.669 16.8731Z" fill="#3D1551"/>
</g>
<mask id="mask5_375_2039" style="mask-type:luminance" maskUnits="userSpaceOnUse" x="13" y="14" width="9" height="15">
<path d="M21.0455 28.332C20.1055 28.2606 19.031 28.093 17.7905 27.8031C12.7044 26.6151 11.9879 21.352 14.6824 18.6458C16.2945 17.0264 19.13 15.5417 20.467 14.8528C19.4649 15.5246 18.5121 16.1973 17.6692 16.8727H17.669C17.6658 16.8755 17.6624 16.8781 17.6592 16.8809C17.6584 16.8813 17.658 16.8817 17.6571 16.8824C17.6546 16.8845 17.6518 16.8866 17.6491 16.8888C17.648 16.8896 17.647 16.8905 17.6459 16.8914C17.6436 16.8933 17.6412 16.8952 17.6389 16.8969C17.6374 16.8982 17.6361 16.8993 17.6347 16.9006C17.6325 16.9021 17.6308 16.9035 17.6287 16.9053C17.627 16.9065 17.6251 16.908 17.6234 16.9095C17.6219 16.9108 17.6202 16.9121 17.6185 16.9134C17.616 16.9155 17.6135 16.9177 17.6107 16.9198C17.6099 16.9205 17.6092 16.9209 17.6084 16.9215C17.6058 16.9237 17.6031 16.9258 17.6005 16.9279C17.5997 16.9286 17.5988 16.9292 17.5982 16.9299C17.5946 16.9326 17.5912 16.9354 17.5878 16.9382C16.703 17.6492 15.9475 18.3604 15.4695 19.0467C15.227 19.3907 15.0544 19.7215 14.9156 20.0788C14.8973 20.1225 14.8814 20.1693 14.8647 20.2149L14.8522 20.2491L14.8458 20.266C14.8462 20.2656 14.8465 20.265 14.8467 20.2643C14.8469 20.2637 14.8473 20.2628 14.8477 20.262C14.8481 20.2609 14.8486 20.2598 14.849 20.2587C14.8496 20.2577 14.8501 20.2566 14.8505 20.2555C14.8507 20.2547 14.8511 20.2538 14.8515 20.2532C14.8518 20.2523 14.8522 20.2517 14.8524 20.251C14.8662 20.2194 14.8706 20.2098 14.8708 20.2098C14.8713 20.2098 14.8689 20.2155 14.8668 20.2215C14.8664 20.2226 14.866 20.2234 14.8657 20.2243C14.8638 20.2292 14.8624 20.2335 14.8626 20.2335C14.8626 20.2335 14.8626 20.2335 14.8628 20.2333C14.8628 20.2333 14.8628 20.2333 14.8628 20.2331C14.863 20.2329 14.8632 20.2324 14.8634 20.232C14.8636 20.2316 14.8638 20.2314 14.8638 20.2312L14.8318 20.3373L14.7998 20.4434C14.7913 20.4725 14.7778 20.5125 14.7778 20.5245C14.7778 20.5262 14.778 20.5273 14.7786 20.5277C14.7782 20.5555 14.7771 20.5825 14.7748 20.6086L14.7629 20.7192C14.7583 20.7594 14.7515 20.7992 14.7504 20.8388C14.743 20.9173 14.7375 20.9945 14.7371 21.0705C14.7371 21.0823 14.7371 21.0942 14.7371 21.106C14.7373 21.6976 14.87 22.2061 15.0661 22.7551C15.4693 23.8638 16.2769 25.0752 17.2317 25.9809C18.1837 26.9011 19.2254 27.5657 20.1721 27.9944C20.1744 27.9955 20.1768 27.9966 20.1791 27.9976C20.1793 27.9976 20.1793 27.9976 20.1793 27.9976C20.4771 28.1324 20.7675 28.2426 21.0455 28.332Z" fill="white"/>
</mask>
<g mask="url(#mask5_375_2039)">
<rect x="11.865" y="14.7051" width="9.39507" height="13.7828" fill="#3D1551"/>
</g>
</svg>
