<svg width="40" height="36" viewBox="0 0 40 36" fill="none" xmlns="http://www.w3.org/2000/svg">
<path d="M16.8873 6.96556C16.9061 7.09283 16.9625 7.21159 17.0493 7.3066C17.1361 7.40161 17.2492 7.46855 17.3743 7.49885C17.4993 7.52914 17.6306 7.52141 17.7512 7.47665C17.8718 7.43189 17.9763 7.35212 18.0513 7.24759L19.4084 5.38821C19.5087 5.24955 19.5499 5.07673 19.523 4.90769C19.496 4.73866 19.4031 4.58723 19.2646 4.48665L17.4084 3.12493C17.3053 3.04937 17.182 3.0061 17.0543 3.0006C16.9266 2.9951 16.8001 3.02761 16.6909 3.09402C16.5816 3.16043 16.4945 3.25776 16.4406 3.37368C16.3867 3.48961 16.3684 3.61892 16.3881 3.74524L16.5443 4.74446C14.298 5.21258 12.1809 6.1656 10.3412 7.53691C8.50143 8.90822 6.98332 10.6647 5.89295 12.6837C4.80258 14.7027 4.16626 16.9355 4.02845 19.2259C3.89064 21.5164 4.25467 23.8093 5.09509 25.9445L5.87634 27.7288H7.41541L6.39978 25.4156C5.63816 23.4773 5.30761 21.3964 5.43111 19.3175C5.5546 17.2387 6.12918 15.2116 7.11492 13.3771C8.10066 11.5426 9.47394 9.94473 11.1394 8.6944C12.8048 7.44407 14.7225 6.57128 16.7592 6.13665L16.8873 6.96556Z" fill="#3D1551"/>
<path d="M35.2602 26.0235L34.368 25.6587C35.061 23.856 35.4151 21.9408 35.4125 20.0095C35.4125 12.4993 30.0711 6.00088 22.7117 4.55713L22.4414 5.9376C29.1422 7.25166 34.0039 13.1696 34.0039 20.0095C34.007 21.7574 33.6892 23.4911 33.0664 25.1243L32.2453 24.7876C32.1271 24.7389 31.9971 24.7264 31.8718 24.7517C31.7465 24.777 31.6316 24.8389 31.5415 24.9297C31.4515 25.0204 31.3904 25.1358 31.366 25.2613C31.3417 25.3868 31.3551 25.5166 31.4047 25.6345L32.2945 27.7579C32.3608 27.9157 32.4869 28.0407 32.6452 28.1056C32.8036 28.1705 32.9812 28.1699 33.1391 28.104L35.2633 27.2212C35.3824 27.1726 35.4843 27.0895 35.5559 26.9826C35.6275 26.8758 35.6656 26.75 35.6652 26.6213C35.6649 26.4927 35.6262 26.367 35.554 26.2605C35.4818 26.1541 35.3795 26.0715 35.2602 26.0235Z" fill="#3D1551"/>
<path d="M26.4735 14.1071C24.9962 14.036 22.2243 14.2031 20.2501 16.1071C20.0411 16.3086 19.8464 16.5245 19.6673 16.7531C19.4885 16.5245 19.294 16.3086 19.0853 16.1071C17.1103 14.2031 14.3384 14.036 12.861 14.1071C12.3897 14.1275 11.9431 14.324 11.6096 14.6577C11.2761 14.9914 11.0798 15.438 11.0595 15.9094C10.9892 17.386 11.1556 20.1578 13.0595 22.1328C14.422 23.5461 16.4087 24.2844 18.9657 24.3344V30.6157H13.3931V32.0219H25.8986V30.6157H20.372V24.3344C22.9275 24.2836 24.9134 23.5453 26.2759 22.1328C28.1798 20.1578 28.3462 17.386 28.2759 15.9094C28.2552 15.438 28.0587 14.9915 27.7251 14.6579C27.3915 14.3242 26.9449 14.1277 26.4735 14.1071ZM12.4642 15.9758C12.4695 15.8544 12.5201 15.7395 12.606 15.6536C12.6919 15.5677 12.8069 15.5171 12.9282 15.5117C14.1782 15.4516 16.5142 15.5821 18.1087 17.1196C19.2173 18.1875 19.8095 19.7891 19.8775 21.8852C18.7907 19.6196 16.6009 18.8961 16.4892 18.861L16.0868 20.1266C16.1095 20.1336 18.1181 20.7992 18.8696 22.9289C16.7603 22.8672 15.1454 22.2727 14.072 21.1594C12.5345 19.5649 12.4048 17.2258 12.4642 15.9758Z" fill="#3D1551"/>
</svg>
