<svg width="40" height="40" viewBox="0 0 40 40" fill="none" xmlns="http://www.w3.org/2000/svg">
<path fill-rule="evenodd" clip-rule="evenodd" d="M14.3333 19.6667C17.5558 19.6667 20.1667 17.0558 20.1667 13.8333C20.1667 10.6108 17.5558 8 14.3333 8C11.1108 8 8.5 10.6108 8.5 13.8333C8.5 17.0558 11.1108 19.6667 14.3333 19.6667ZM18.5 13.8333C18.5 16.1358 16.6358 18 14.3333 18C12.0308 18 10.1667 16.1358 10.1667 13.8333C10.1667 11.5308 12.0308 9.66667 14.3333 9.66667C16.6358 9.66667 18.5 11.5308 18.5 13.8333ZM3.5 31.3333V26.6667C3.5 23.12 10.7175 21.3333 14.3333 21.3333C16.7383 21.3333 20.7375 22.1242 23.1458 23.6975C24.8625 23.2333 26.745 23 28.0833 23C29.6317 23 31.7092 23.3117 33.425 23.9417C34.28 24.2567 35.0992 24.67 35.7183 25.205C36.3425 25.7442 36.8333 26.4733 36.8333 27.3883V31.3333H3.5ZM5.16667 26.6667C5.16667 26.4025 5.28833 26.0408 5.805 25.5708C6.3325 25.0908 7.14417 24.6258 8.17167 24.2208C10.2308 23.4083 12.7308 23 14.3333 23C15.9358 23 18.4367 23.4083 20.4942 24.2208C21.5225 24.6258 22.3342 25.0908 22.8608 25.5708C23.3783 26.0408 23.5 26.4025 23.5 26.6667V29.6667H5.16667V26.6667ZM24.6275 25.0583C25.8883 24.7975 27.1525 24.6667 28.0833 24.6667C29.4558 24.6667 31.3358 24.95 32.85 25.5067C33.6075 25.785 34.22 26.1133 34.6292 26.4667C35.0333 26.8158 35.1667 27.1225 35.1667 27.3892V29.6667H25.1667V26.6667C25.1667 26.0833 24.9708 25.5458 24.6275 25.0583ZM32.6667 16.75C32.6667 19.2825 30.6158 21.3333 28.0833 21.3333C27.4814 21.3334 26.8854 21.215 26.3292 20.9847C25.7731 20.7544 25.2678 20.4168 24.8422 19.9911C24.4166 19.5655 24.079 19.0602 23.8487 18.5041C23.6184 17.948 23.4999 17.3519 23.5 16.75C23.5 14.2175 25.5508 12.1667 28.0833 12.1667C30.6158 12.1667 32.6667 14.2175 32.6667 16.75ZM28.0833 19.6667C29.695 19.6667 31 18.3617 31 16.75C31 15.1383 29.695 13.8333 28.0833 13.8333C27.7002 13.8331 27.3209 13.9084 26.9669 14.0549C26.6129 14.2014 26.2913 14.4162 26.0204 14.6871C25.7496 14.958 25.5347 15.2796 25.3882 15.6336C25.2417 15.9875 25.1664 16.3669 25.1667 16.75C25.1667 18.3617 26.4717 19.6667 28.0833 19.6667Z" fill="white"/>
</svg>
