<svg width="40" height="40" viewBox="0 0 40 40" fill="none" xmlns="http://www.w3.org/2000/svg">
<path d="M25.1522 12.6407C25.1106 12.5158 25.031 12.4071 24.9245 12.3298C24.8181 12.2525 24.6901 12.2104 24.5585 12.2094H21.4522L20.496 9.25943C20.4549 9.13439 20.3753 9.02552 20.2687 8.94833C20.1621 8.87114 20.0338 8.82959 19.9022 8.82959C19.7706 8.82959 19.6423 8.87114 19.5357 8.94833C19.4291 9.02552 19.3496 9.13439 19.3085 9.25943L18.3522 12.2094H15.246C15.1144 12.2104 14.9864 12.2525 14.8799 12.3298C14.7734 12.4071 14.6938 12.5158 14.6522 12.6407C14.6107 12.7667 14.6107 12.9028 14.6524 13.0288C14.694 13.1549 14.775 13.2642 14.8835 13.3407L17.3897 15.1657L16.4335 18.1157C16.3922 18.2412 16.3917 18.3765 16.4321 18.5023C16.4726 18.628 16.5518 18.7378 16.6585 18.8157C16.7663 18.8919 16.8951 18.9329 17.0272 18.9329C17.1593 18.9329 17.2881 18.8919 17.396 18.8157L19.9022 16.9907L22.4085 18.8157C22.5172 18.8902 22.6454 18.9315 22.7772 18.9344C22.9094 18.9334 23.038 18.892 23.146 18.8157C23.2526 18.7378 23.3319 18.628 23.3723 18.5023C23.4127 18.3765 23.4122 18.2412 23.371 18.1157L22.4147 15.1657L24.921 13.3407C25.0294 13.2642 25.1104 13.1549 25.1521 13.0288C25.1937 12.9028 25.1938 12.7667 25.1522 12.6407ZM21.3147 14.4219C21.2074 14.4994 21.1273 14.6088 21.0857 14.7345C21.0442 14.8602 21.0434 14.9958 21.0835 15.1219L21.5897 16.6719L20.271 15.7094C20.1635 15.6322 20.0345 15.5907 19.9022 15.5907C19.7699 15.5907 19.6409 15.6322 19.5335 15.7094L18.2147 16.6719L18.721 15.1219C18.761 14.9958 18.7602 14.8602 18.7187 14.7345C18.6772 14.6088 18.597 14.4994 18.4897 14.4219L17.171 13.4594H18.8022C18.9342 13.4602 19.063 13.4188 19.1698 13.3412C19.2766 13.2636 19.3559 13.154 19.396 13.0282L19.9022 11.4782L20.4085 13.0282C20.4486 13.154 20.5278 13.2636 20.6346 13.3412C20.7414 13.4188 20.8702 13.4602 21.0022 13.4594H22.6335L21.3147 14.4219Z" fill="white"/>
<path d="M19.9017 6.19678C17.768 6.19619 15.7165 7.01987 14.1757 8.49584C12.6348 9.97181 11.7237 11.986 11.6326 14.1177C11.5414 16.2495 12.2773 18.334 13.6865 19.9361C15.0958 21.5382 17.0695 22.534 19.1954 22.7155C19.4329 22.7343 19.6642 22.7468 19.9017 22.7468C20.1142 22.7468 20.3329 22.7343 20.5454 22.7155H20.6079V22.7093C22.7331 22.5278 24.706 21.5324 26.1147 19.9308C27.5234 18.3293 28.2589 16.2455 28.1678 14.1146C28.0767 11.9836 27.1658 9.97026 25.6256 8.49488C24.0853 7.01949 22.0346 6.19615 19.9017 6.19678ZM26.0329 17.8968C26.0313 17.8968 26.0297 17.8974 26.0285 17.8986C26.0273 17.8998 26.0267 17.9014 26.0267 17.903C25.4676 18.905 24.6707 19.754 23.7061 20.3752C22.7415 20.9965 21.6389 21.3709 20.4954 21.4655L20.4892 21.4718H20.4829C20.0921 21.5103 19.6983 21.5082 19.3079 21.4655C17.7971 21.3368 16.3686 20.7225 15.2358 19.7145C14.1031 18.7066 13.327 17.359 13.0237 15.8734C12.7203 14.3878 12.9059 12.8439 13.5528 11.4725C14.1996 10.1012 15.273 8.97598 16.6123 8.26521C17.9517 7.55445 19.4852 7.29629 20.9834 7.52931C22.4817 7.76234 23.8643 8.47404 24.9245 9.55802C25.9847 10.642 26.6656 12.04 26.8654 13.5431C27.0652 15.0461 26.7732 16.5735 26.0329 17.8968Z" fill="white"/>
<path d="M36.7023 32.7407L34.3523 29.097C32.6711 26.5032 30.9919 23.9053 29.3148 21.3032C29.4461 21.2532 29.5961 21.197 29.7461 21.147C30.0848 21.0791 30.4067 20.9448 30.6932 20.7517C30.9796 20.5586 31.2249 20.3106 31.4148 20.022C31.521 19.6957 31.5619 19.3517 31.5351 19.0096C31.5083 18.6675 31.4143 18.334 31.2586 18.0282C31.1117 17.7084 31.0329 17.3614 31.0273 17.0095C31.1821 16.7087 31.397 16.4428 31.6586 16.2282C31.9368 16.0176 32.1706 15.7539 32.3465 15.4525C32.5224 15.1511 32.637 14.8179 32.6836 14.472C32.6377 14.1268 32.5234 13.7942 32.3474 13.4937C32.1714 13.1933 31.9372 12.9309 31.6586 12.722C31.3979 12.504 31.1833 12.2363 31.0273 11.9345C31.0329 11.5825 31.1117 11.2356 31.2586 10.9157C31.4142 10.6111 31.5081 10.2786 31.5349 9.93757C31.5617 9.59651 31.5209 9.2535 31.4148 8.92824C31.2244 8.64017 30.9789 8.39251 30.6926 8.19946C30.4062 8.00642 30.0846 7.87177 29.7461 7.80324C29.4095 7.71809 29.093 7.56729 28.8148 7.35949C28.6765 7.04144 28.6001 6.69992 28.5898 6.35324C28.5992 6.0088 28.5406 5.66588 28.4173 5.34413C28.2939 5.02239 28.1083 4.72814 27.8711 4.47824C27.2737 4.12657 26.5615 4.02546 25.8898 4.19699C25.5497 4.26721 25.1987 4.26721 24.8586 4.19699C24.5968 3.97769 24.3821 3.70769 24.2273 3.40324C24.0852 3.0843 23.881 2.79682 23.6267 2.55754C23.3724 2.31826 23.0731 2.13196 22.7461 2.00949C22.4075 1.98038 22.0664 2.01839 21.7425 2.12136C21.4186 2.22432 21.1182 2.3902 20.8586 2.60949C20.5747 2.82586 20.2491 2.98119 19.9023 3.06574C19.5555 2.98119 19.23 2.82586 18.9461 2.60949C18.6874 2.39068 18.388 2.22506 18.0652 2.1221C17.7424 2.01914 17.4025 1.98087 17.0648 2.00949C16.7365 2.13088 16.4357 2.31672 16.1803 2.55608C15.9248 2.79544 15.7198 3.08348 15.5773 3.40324C15.4224 3.7058 15.2101 3.97537 14.9523 4.19699C14.6101 4.26711 14.2571 4.26711 13.9148 4.19699C13.2452 4.02538 12.5349 4.12654 11.9398 4.47824C11.6999 4.72783 11.5122 5.02278 11.3878 5.34581C11.2633 5.66884 11.2045 6.01346 11.2148 6.35949C11.2085 6.70532 11.1297 7.04597 10.9836 7.35949C10.7111 7.56764 10.3982 7.71665 10.0648 7.79699C9.37962 7.93555 8.77728 8.3401 8.38983 8.92199C8.28363 9.24829 8.24277 9.59232 8.26958 9.93441C8.29639 10.2765 8.39035 10.61 8.54608 10.9157C8.69299 11.2356 8.77174 11.5825 8.77733 11.9345C8.62133 12.2363 8.40673 12.504 8.14608 12.722C7.86746 12.9309 7.63329 13.1933 7.45729 13.4937C7.2813 13.7942 7.167 14.1268 7.12108 14.472C7.16768 14.8179 7.28224 15.1511 7.45815 15.4525C7.63407 15.7539 7.86786 16.0176 8.14608 16.2282C8.40768 16.4428 8.62252 16.7087 8.77733 17.0095C8.77174 17.3614 8.69299 17.7084 8.54608 18.0282C8.39046 18.3329 8.29655 18.6653 8.26974 19.0064C8.24292 19.3475 8.28374 19.6905 8.38983 20.0157C8.57879 20.3052 8.8238 20.5538 9.11041 20.747C9.39701 20.9403 9.71941 21.0741 10.0586 21.1407C10.2023 21.197 10.3523 21.247 10.4898 21.3032C8.80858 23.9032 7.12942 26.5012 5.45233 29.097L3.10233 32.7407C3.03455 32.8428 2.99891 32.9629 3.00003 33.0854C3.00114 33.208 3.03895 33.3274 3.10858 33.4282C3.17648 33.5291 3.27252 33.6077 3.38476 33.6544C3.49699 33.701 3.62047 33.7137 3.73983 33.6907L8.00858 32.897L9.04608 37.122C9.07621 37.24 9.14017 37.3467 9.23012 37.4289C9.32006 37.511 9.43205 37.5651 9.55233 37.5845C9.58521 37.5917 9.61868 37.5959 9.65233 37.597C9.75707 37.5977 9.86026 37.5717 9.95213 37.5213C10.044 37.471 10.1215 37.3981 10.1773 37.3095L16.9148 26.8782C16.9648 26.8907 17.0086 26.922 17.0586 26.9345C17.161 26.9589 17.2658 26.9715 17.3711 26.972C17.9448 26.9087 18.4899 26.6881 18.9461 26.3345C19.23 26.1181 19.5555 25.9628 19.9023 25.8782C20.2491 25.9628 20.5747 26.1181 20.8586 26.3345C21.1184 26.5555 21.4198 26.7224 21.7449 26.8255C22.0701 26.9285 22.4126 26.9656 22.7523 26.9345C22.8023 26.922 22.8461 26.8907 22.8898 26.8782L29.6273 37.3095C29.6832 37.3981 29.7607 37.471 29.8525 37.5213C29.9444 37.5717 30.0476 37.5977 30.1523 37.597C30.186 37.5959 30.2195 37.5917 30.2523 37.5845C30.3726 37.5651 30.4846 37.511 30.5745 37.4289C30.6645 37.3467 30.7285 37.24 30.7586 37.122L31.7961 32.897L36.0648 33.6907C36.1842 33.713 36.3074 33.7001 36.4195 33.6535C36.5316 33.6068 36.6277 33.5286 36.6961 33.4282C36.7657 33.3274 36.8035 33.208 36.8046 33.0854C36.8058 32.9629 36.7701 32.8428 36.7023 32.7407ZM9.91483 35.4095L9.08358 32.0282C9.04624 31.8731 8.95099 31.7382 8.81736 31.651C8.68373 31.5639 8.52183 31.5311 8.36483 31.5595L4.93983 32.197L6.50233 29.7782C8.06483 27.3532 9.6315 24.9282 11.2023 22.5032C11.2091 22.532 11.2133 22.5613 11.2148 22.5907C11.2054 22.9352 11.2641 23.2781 11.3874 23.5998C11.5107 23.9216 11.6963 24.2158 11.9336 24.4657C12.5311 24.8171 13.2432 24.9182 13.9148 24.747C14.255 24.6768 14.6059 24.6768 14.9461 24.747C15.2094 24.9648 15.4243 25.2352 15.5773 25.5407C15.6961 25.722 15.8148 25.9032 15.9398 26.0782L9.91483 35.4095ZM22.6523 25.5907C22.6018 25.6481 22.5372 25.6912 22.4648 25.7157C22.2898 25.7532 21.8273 25.472 21.5273 25.2782C21.0574 24.9133 20.4943 24.6881 19.9023 24.6282C19.3104 24.6881 18.7473 24.9133 18.2773 25.2782C17.9773 25.472 17.5148 25.7595 17.3461 25.722C17.2695 25.6927 17.2009 25.6455 17.1461 25.5845C16.9525 25.3679 16.7828 25.1311 16.6398 24.8782C16.3812 24.3624 15.9855 23.9277 15.4961 23.622C15.212 23.4927 14.9018 23.4306 14.5898 23.4407C14.318 23.446 14.0467 23.4669 13.7773 23.5032C13.3898 23.547 12.8648 23.6095 12.7148 23.4907C12.5648 23.372 12.5023 22.8407 12.4586 22.4532C12.451 21.868 12.28 21.2965 11.9648 20.8032C11.9151 20.7408 11.8585 20.6842 11.7961 20.6345C11.7722 20.6143 11.7472 20.5955 11.7211 20.5782L11.7148 20.572H11.7086C11.3349 20.2987 10.916 20.0935 10.4711 19.9657C10.1023 19.8345 9.60233 19.6595 9.51483 19.472C9.42733 19.297 9.60233 18.8032 9.72733 18.4407C9.97769 17.9092 10.0709 17.3172 9.99608 16.7345C9.81254 16.1871 9.47644 15.7035 9.02733 15.3407C8.75233 15.0657 8.37108 14.6845 8.37108 14.472C8.37108 14.2595 8.75233 13.8782 9.02733 13.6032C9.47644 13.2404 9.81254 12.7569 9.99608 12.2095C10.0709 11.6268 9.97769 11.0348 9.72733 10.5032C9.60233 10.1407 9.42733 9.64699 9.51483 9.46574C9.60233 9.28449 10.1086 9.10949 10.4773 8.97824C11.0407 8.84577 11.5546 8.55522 11.9586 8.14074C12.2784 7.65161 12.4518 7.08134 12.4586 6.49699C12.5023 6.10949 12.5586 5.58449 12.7148 5.45949C12.8711 5.33449 13.3898 5.39699 13.7773 5.44074C14.3501 5.56275 14.9456 5.52161 15.4961 5.32199C15.987 5.01802 16.3831 4.5829 16.6398 4.06574C16.8461 3.72824 17.1336 3.27199 17.3398 3.22824C17.5148 3.18449 17.9773 3.47824 18.2773 3.66574C18.7473 4.03064 19.3104 4.25589 19.9023 4.31574C20.4943 4.25589 21.0574 4.03064 21.5273 3.66574C21.8273 3.47824 22.2836 3.19074 22.4648 3.22824C22.6711 3.27199 22.9586 3.72824 23.1648 4.06574C23.4215 4.5829 23.8177 5.01802 24.3086 5.32199C24.8591 5.52161 25.4546 5.56275 26.0273 5.44074C26.4148 5.39699 26.9398 5.33449 27.0898 5.45324C27.2398 5.57199 27.3023 6.10324 27.3461 6.49074C27.3537 7.076 27.5247 7.6475 27.8398 8.14074C28.2498 8.5552 28.767 8.84735 29.3336 8.98449C29.7023 9.10949 30.2023 9.28449 30.2898 9.47199C30.3773 9.64699 30.2023 10.1407 30.0773 10.5032C29.827 11.0348 29.7337 11.6268 29.8086 12.2095C29.9921 12.7569 30.3282 13.2404 30.7773 13.6032C31.0523 13.8782 31.4336 14.2595 31.4336 14.472C31.4336 14.6845 31.0523 15.0657 30.7773 15.3407C30.3282 15.7035 29.9921 16.1871 29.8086 16.7345C29.7337 17.3172 29.827 17.9092 30.0773 18.4407C30.2023 18.8032 30.3773 19.297 30.2898 19.4782C30.2023 19.6595 29.6961 19.8407 29.3336 19.9657C28.8656 20.0936 28.4264 20.31 28.0398 20.6032C27.9705 20.6652 27.9058 20.732 27.8461 20.8032C27.5263 21.2924 27.3528 21.8626 27.3461 22.447C27.3023 22.8345 27.2461 23.3595 27.0898 23.4845C26.9336 23.6095 26.4148 23.547 26.0273 23.5032C25.4548 23.3781 24.8584 23.4193 24.3086 23.622C23.8192 23.9277 23.4235 24.3624 23.1648 24.8782C23.0204 25.1336 22.8485 25.3726 22.6523 25.5907ZM31.4398 31.5595C31.2828 31.5311 31.1209 31.5639 30.9873 31.651C30.8537 31.7382 30.7584 31.8731 30.7211 32.0282L29.8898 35.4095L23.8648 26.0782C23.9898 25.9032 24.1086 25.722 24.2273 25.5407C24.3805 25.237 24.593 24.9671 24.8523 24.747C25.1946 24.6769 25.5476 24.6769 25.8898 24.747C26.5594 24.9186 27.2698 24.8174 27.8648 24.4657C28.1042 24.217 28.2915 23.9231 28.416 23.6012C28.5405 23.2793 28.5996 22.9358 28.5898 22.5907C28.5909 22.5612 28.5951 22.5319 28.6023 22.5032C30.1711 24.9282 31.7377 27.3532 33.3023 29.7782L34.8648 32.197L31.4398 31.5595Z" fill="white"/>
</svg>
