<svg width="41" height="39" viewBox="0 0 41 39" fill="none" xmlns="http://www.w3.org/2000/svg">
<path d="M16.3617 22.7883L20.5 20.2783L24.6383 22.7883L23.5383 18.08L27.1983 14.9383L22.3883 14.5133L20.5 10.0967L18.6117 14.5133L13.8017 14.9383L17.4617 18.08L16.3617 22.7883ZM5.5 33.4617V7.69167C5.5 6.925 5.75722 6.285 6.27167 5.77167C6.785 5.25722 7.425 5 8.19167 5H32.8083C33.575 5 34.215 5.25722 34.7283 5.77167C35.2428 6.285 35.5 6.925 35.5 7.69167V25.6417C35.5 26.4083 35.2433 27.0489 34.73 27.5633C34.2156 28.0767 33.575 28.3333 32.8083 28.3333H10.6283L5.5 33.4617ZM9.91667 26.6667H32.8083C33.0639 26.6667 33.2989 26.56 33.5133 26.3467C33.7267 26.1322 33.8333 25.8972 33.8333 25.6417V7.69167C33.8333 7.43611 33.7267 7.20111 33.5133 6.98667C33.2989 6.77333 33.0639 6.66667 32.8083 6.66667H8.19167C7.93611 6.66667 7.70111 6.77333 7.48667 6.98667C7.27333 7.20111 7.16667 7.43611 7.16667 7.69167V29.4083L9.91667 26.6667Z" fill="white"/>
</svg>
