<svg width="50" height="50" viewBox="0 0 50 50" fill="none" xmlns="http://www.w3.org/2000/svg">
<path d="M10.7137 24.9997V15.6069C10.7416 13.7606 11.1336 11.9379 11.8671 10.2433C12.6006 8.54874 13.6613 7.01555 14.9884 5.7316C16.3154 4.44766 17.8828 3.43819 19.6007 2.76103C21.3186 2.08388 23.1532 1.75236 24.9994 1.78546C26.8457 1.75236 28.6803 2.08388 30.3982 2.76103C32.1161 3.43819 33.6834 4.44766 35.0105 5.7316C36.3376 7.01555 37.3983 8.54874 38.1318 10.2433C38.8653 11.9379 39.2573 13.7606 39.2852 15.6069V24.9997M32.1423 43.7497C34.0367 43.7497 35.8535 42.9972 37.1931 41.6576C38.5326 40.3181 39.2852 38.5013 39.2852 36.6069V28.5712M32.1423 43.7497C32.1423 44.9337 31.672 46.0693 30.8347 46.9065C29.9975 47.7437 28.862 48.214 27.678 48.214H22.3209C21.1369 48.214 20.0014 47.7437 19.1641 46.9065C18.3269 46.0693 17.8566 44.9337 17.8566 43.7497C17.8566 42.5657 18.3269 41.4302 19.1641 40.593C20.0014 39.7558 21.1369 39.2855 22.3209 39.2855H27.678C28.862 39.2855 29.9975 39.7558 30.8347 40.593C31.672 41.4302 32.1423 42.5657 32.1423 43.7497ZM5.35659 19.6426H8.92801C9.40161 19.6426 9.85582 19.8307 10.1907 20.1656C10.5256 20.5005 10.7137 20.9547 10.7137 21.4283V32.1426C10.7137 32.6162 10.5256 33.0704 10.1907 33.4053C9.85582 33.7402 9.40161 33.9283 8.92801 33.9283H5.35659C4.40938 33.9283 3.50098 33.552 2.8312 32.8823C2.16143 32.2125 1.78516 31.3041 1.78516 30.3569V23.214C1.78516 22.2668 2.16143 21.3584 2.8312 20.6886C3.50098 20.0189 4.40938 19.6426 5.35659 19.6426ZM44.6423 33.9283H41.0709C40.5973 33.9283 40.1431 33.7402 39.8082 33.4053C39.4733 33.0704 39.2852 32.6162 39.2852 32.1426V21.4283C39.2852 20.9547 39.4733 20.5005 39.8082 20.1656C40.1431 19.8307 40.5973 19.6426 41.0709 19.6426H44.6423C45.5895 19.6426 46.4979 20.0189 47.1677 20.6886C47.8375 21.3584 48.2137 22.2668 48.2137 23.214V30.3569C48.2137 31.3041 47.8375 32.2125 47.1677 32.8823C46.4979 33.552 45.5895 33.9283 44.6423 33.9283Z" stroke="#3D1551" stroke-linecap="round" stroke-linejoin="round"/>
</svg>
