<svg width="41" height="40" viewBox="0 0 41 40" fill="none" xmlns="http://www.w3.org/2000/svg">
<g clip-path="url(#clip0_460_6214)">
<path d="M17.8281 3.24066L20.0503 1L22.2726 3.24066" stroke="#3D1551" stroke-width="1.5" stroke-miterlimit="10" stroke-linecap="round" stroke-linejoin="round"/>
<path d="M20.0508 1V6.10373" stroke="#3D1551" stroke-width="1.5" stroke-miterlimit="10" stroke-linecap="round" stroke-linejoin="round"/>
<path d="M8.69141 8.96698V5.73047H11.9013" stroke="#3D1551" stroke-width="1.5" stroke-miterlimit="10" stroke-linecap="round" stroke-linejoin="round"/>
<path d="M8.69141 5.73047L12.3951 9.34043" stroke="#3D1551" stroke-width="1.5" stroke-miterlimit="10" stroke-linecap="round" stroke-linejoin="round"/>
<path d="M6.34568 19.4232L4 17.1825L6.34568 14.8174" stroke="#3D1551" stroke-width="1.5" stroke-miterlimit="10" stroke-linecap="round" stroke-linejoin="round"/>
<path d="M4 17.1826H9.18518" stroke="#3D1551" stroke-width="1.5" stroke-miterlimit="10" stroke-linecap="round" stroke-linejoin="round"/>
<path d="M28.1953 5.73047H31.4052V8.96698" stroke="#3D1551" stroke-width="1.5" stroke-miterlimit="10" stroke-linecap="round" stroke-linejoin="round"/>
<path d="M31.4068 5.73047L27.7031 9.34043" stroke="#3D1551" stroke-width="1.5" stroke-miterlimit="10" stroke-linecap="round" stroke-linejoin="round"/>
<path d="M33.7539 14.8174L36.0996 17.1825L33.7539 19.4232" stroke="#3D1551" stroke-width="1.5" stroke-miterlimit="10" stroke-linecap="round" stroke-linejoin="round"/>
<path d="M36.0992 17.1826H30.9141" stroke="#3D1551" stroke-width="1.5" stroke-miterlimit="10" stroke-linecap="round" stroke-linejoin="round"/>
<path d="M28.1989 38.3442H11.9026C10.915 38.3442 10.0508 37.4728 10.0508 36.4769V35.8545C10.0508 31.4977 13.5076 28.0122 17.8286 28.0122H22.273C26.594 28.0122 30.0508 31.4977 30.0508 35.8545V36.4769C30.0508 37.4728 29.1866 38.3442 28.1989 38.3442Z" stroke="#3D1551" stroke-width="1.5" stroke-miterlimit="10" stroke-linecap="round" stroke-linejoin="round"/>
<path d="M20.0516 10.3359C16.9652 10.3359 14.4961 12.8256 14.4961 15.9376C14.4961 19.0496 16.9652 23.7799 20.0516 23.7799C23.1381 23.7799 25.6072 19.0496 25.6072 15.9376C25.6072 12.8256 23.1381 10.3359 20.0516 10.3359Z" stroke="#3D1551" stroke-width="1.5" stroke-miterlimit="10" stroke-linecap="round" stroke-linejoin="round"/>
</g>
<defs>
<clipPath id="clip0_460_6214">
<rect width="40.0988" height="39.3444" fill="white"/>
</clipPath>
</defs>
</svg>
